<mxfile host="app.diagrams.net" modified="2023-08-04T19:37:11.221Z" agent="Mozilla/5.0 (Macintosh; Intel Mac OS X 10_15_7) AppleWebKit/537.36 (KHTML, like Gecko) Chrome/115.0.0.0 Safari/537.36" etag="c1PQP47nyoccmcEKLBqs" version="21.6.6" type="device">
  <diagram name="Page-1" id="jvLoEnhGq3pGxzY70CUw">
    <mxGraphModel dx="3835" dy="170" grid="1" gridSize="10" guides="1" tooltips="1" connect="1" arrows="1" fold="1" page="1" pageScale="1" pageWidth="850" pageHeight="1100" math="0" shadow="0">
      <root>
        <mxCell id="0" />
        <mxCell id="1" parent="0" />
        <mxCell id="llRP50ADG-5y6TPERRPI-341" value="&lt;font style=&quot;font-size: 18px;&quot;&gt;Filter:&lt;br&gt;authorship.institutions&lt;br&gt;contains&amp;nbsp;GT&lt;/font&gt;" style="rounded=0;whiteSpace=wrap;html=1;" parent="1" vertex="1">
          <mxGeometry x="-580" y="2158.75" width="150" height="71.25" as="geometry" />
        </mxCell>
        <mxCell id="D7uy60bbqNTtc7ontHt6-8" value="OpenAlex" style="swimlane;whiteSpace=wrap;html=1;" parent="1" vertex="1">
          <mxGeometry x="-780" y="2980" width="330" height="530" as="geometry" />
        </mxCell>
        <mxCell id="D7uy60bbqNTtc7ontHt6-26" value="" style="ellipse;whiteSpace=wrap;html=1;" parent="D7uy60bbqNTtc7ontHt6-8" vertex="1">
          <mxGeometry x="112.5" y="40" width="105" height="55" as="geometry" />
        </mxCell>
        <mxCell id="D7uy60bbqNTtc7ontHt6-25" value="" style="ellipse;whiteSpace=wrap;html=1;" parent="D7uy60bbqNTtc7ontHt6-8" vertex="1">
          <mxGeometry x="112.5" y="110" width="105" height="55" as="geometry" />
        </mxCell>
        <mxCell id="D7uy60bbqNTtc7ontHt6-24" value="" style="ellipse;whiteSpace=wrap;html=1;" parent="D7uy60bbqNTtc7ontHt6-8" vertex="1">
          <mxGeometry x="112.5" y="180" width="105" height="55" as="geometry" />
        </mxCell>
        <mxCell id="D7uy60bbqNTtc7ontHt6-23" value="" style="ellipse;whiteSpace=wrap;html=1;" parent="D7uy60bbqNTtc7ontHt6-8" vertex="1">
          <mxGeometry x="112.5" y="250" width="105" height="55" as="geometry" />
        </mxCell>
        <mxCell id="D7uy60bbqNTtc7ontHt6-22" value="" style="ellipse;whiteSpace=wrap;html=1;" parent="D7uy60bbqNTtc7ontHt6-8" vertex="1">
          <mxGeometry x="112.5" y="460" width="105" height="55" as="geometry" />
        </mxCell>
        <mxCell id="D7uy60bbqNTtc7ontHt6-21" value="" style="ellipse;whiteSpace=wrap;html=1;" parent="D7uy60bbqNTtc7ontHt6-8" vertex="1">
          <mxGeometry x="112.5" y="390" width="105" height="55" as="geometry" />
        </mxCell>
        <mxCell id="D7uy60bbqNTtc7ontHt6-17" value="" style="ellipse;whiteSpace=wrap;html=1;" parent="D7uy60bbqNTtc7ontHt6-8" vertex="1">
          <mxGeometry x="112.5" y="320" width="105" height="55" as="geometry" />
        </mxCell>
        <mxCell id="D7uy60bbqNTtc7ontHt6-9" value="Works&lt;br&gt;â€¢Authorships" style="text;html=1;align=center;verticalAlign=middle;resizable=0;points=[];autosize=1;strokeColor=none;fillColor=none;" parent="D7uy60bbqNTtc7ontHt6-8" vertex="1">
          <mxGeometry x="120" y="47.5" width="90" height="40" as="geometry" />
        </mxCell>
        <mxCell id="D7uy60bbqNTtc7ontHt6-10" value="Institutions" style="text;html=1;align=center;verticalAlign=middle;resizable=0;points=[];autosize=1;strokeColor=none;fillColor=none;" parent="D7uy60bbqNTtc7ontHt6-8" vertex="1">
          <mxGeometry x="125" y="122.5" width="80" height="30" as="geometry" />
        </mxCell>
        <mxCell id="D7uy60bbqNTtc7ontHt6-12" value="Authors" style="text;html=1;align=center;verticalAlign=middle;resizable=0;points=[];autosize=1;strokeColor=none;fillColor=none;" parent="D7uy60bbqNTtc7ontHt6-8" vertex="1">
          <mxGeometry x="135" y="192.5" width="60" height="30" as="geometry" />
        </mxCell>
        <mxCell id="D7uy60bbqNTtc7ontHt6-13" value="Sources" style="text;html=1;align=center;verticalAlign=middle;resizable=0;points=[];autosize=1;strokeColor=none;fillColor=none;" parent="D7uy60bbqNTtc7ontHt6-8" vertex="1">
          <mxGeometry x="130" y="262.5" width="70" height="30" as="geometry" />
        </mxCell>
        <mxCell id="D7uy60bbqNTtc7ontHt6-14" value="Concepts" style="text;html=1;align=center;verticalAlign=middle;resizable=0;points=[];autosize=1;strokeColor=none;fillColor=none;" parent="D7uy60bbqNTtc7ontHt6-8" vertex="1">
          <mxGeometry x="130" y="332.5" width="70" height="30" as="geometry" />
        </mxCell>
        <mxCell id="D7uy60bbqNTtc7ontHt6-15" value="Funders" style="text;html=1;align=center;verticalAlign=middle;resizable=0;points=[];autosize=1;strokeColor=none;fillColor=none;" parent="D7uy60bbqNTtc7ontHt6-8" vertex="1">
          <mxGeometry x="130" y="402.5" width="70" height="30" as="geometry" />
        </mxCell>
        <mxCell id="D7uy60bbqNTtc7ontHt6-16" value="Geo" style="text;html=1;align=center;verticalAlign=middle;resizable=0;points=[];autosize=1;strokeColor=none;fillColor=none;" parent="D7uy60bbqNTtc7ontHt6-8" vertex="1">
          <mxGeometry x="140" y="472.5" width="50" height="30" as="geometry" />
        </mxCell>
        <mxCell id="D7uy60bbqNTtc7ontHt6-42" style="edgeStyle=orthogonalEdgeStyle;rounded=0;orthogonalLoop=1;jettySize=auto;html=1;" parent="D7uy60bbqNTtc7ontHt6-8" edge="1">
          <mxGeometry relative="1" as="geometry">
            <mxPoint x="115" y="70" as="targetPoint" />
            <mxPoint x="510" y="180" as="sourcePoint" />
            <Array as="points">
              <mxPoint x="510" y="135" />
              <mxPoint x="355" y="135" />
              <mxPoint x="355" y="100" />
              <mxPoint x="85" y="100" />
              <mxPoint x="85" y="70" />
            </Array>
          </mxGeometry>
        </mxCell>
        <mxCell id="D7uy60bbqNTtc7ontHt6-45" value="call works api for authors" style="edgeLabel;html=1;align=center;verticalAlign=middle;resizable=0;points=[];" parent="D7uy60bbqNTtc7ontHt6-42" vertex="1" connectable="0">
          <mxGeometry x="-0.4389" y="1" relative="1" as="geometry">
            <mxPoint x="34" y="1" as="offset" />
          </mxGeometry>
        </mxCell>
        <mxCell id="mCBFNbVrAHuf4ewI3aMc-2" value="" style="endArrow=classic;html=1;rounded=0;entryX=-0.031;entryY=0.455;entryDx=0;entryDy=0;entryPerimeter=0;" parent="D7uy60bbqNTtc7ontHt6-8" target="mCBFNbVrAHuf4ewI3aMc-3" edge="1">
          <mxGeometry width="50" height="50" relative="1" as="geometry">
            <mxPoint x="217.5" y="60" as="sourcePoint" />
            <mxPoint x="350" y="-10" as="targetPoint" />
          </mxGeometry>
        </mxCell>
        <mxCell id="D7uy60bbqNTtc7ontHt6-27" value="Preprocessing" style="swimlane;whiteSpace=wrap;html=1;" parent="1" vertex="1">
          <mxGeometry x="-240" y="2970" width="980" height="390" as="geometry" />
        </mxCell>
        <mxCell id="D7uy60bbqNTtc7ontHt6-29" value="" style="ellipse;whiteSpace=wrap;html=1;" parent="D7uy60bbqNTtc7ontHt6-27" vertex="1">
          <mxGeometry x="20" y="52.5" width="170" height="77.5" as="geometry" />
        </mxCell>
        <mxCell id="D7uy60bbqNTtc7ontHt6-30" value="openalex_work_dump.json" style="text;html=1;align=center;verticalAlign=middle;resizable=0;points=[];autosize=1;strokeColor=none;fillColor=none;" parent="D7uy60bbqNTtc7ontHt6-27" vertex="1">
          <mxGeometry x="20" y="76.25" width="170" height="30" as="geometry" />
        </mxCell>
        <mxCell id="D7uy60bbqNTtc7ontHt6-32" value="openalex_author_dump.json" style="ellipse;whiteSpace=wrap;html=1;" parent="D7uy60bbqNTtc7ontHt6-27" vertex="1">
          <mxGeometry x="20" y="200" width="170" height="77.5" as="geometry" />
        </mxCell>
        <mxCell id="D7uy60bbqNTtc7ontHt6-59" style="edgeStyle=orthogonalEdgeStyle;rounded=0;orthogonalLoop=1;jettySize=auto;html=1;exitX=1;exitY=0.5;exitDx=0;exitDy=0;" parent="D7uy60bbqNTtc7ontHt6-27" source="D7uy60bbqNTtc7ontHt6-50" edge="1">
          <mxGeometry relative="1" as="geometry">
            <mxPoint x="500" y="187.9411764705883" as="targetPoint" />
          </mxGeometry>
        </mxCell>
        <mxCell id="D7uy60bbqNTtc7ontHt6-50" value="Library Spreadsheet" style="swimlane;whiteSpace=wrap;html=1;startSize=23;" parent="D7uy60bbqNTtc7ontHt6-27" vertex="1">
          <mxGeometry x="270" y="52.5" width="200" height="270" as="geometry" />
        </mxCell>
        <mxCell id="D7uy60bbqNTtc7ontHt6-51" value="" style="ellipse;whiteSpace=wrap;html=1;" parent="D7uy60bbqNTtc7ontHt6-50" vertex="1">
          <mxGeometry x="47.5" y="40" width="105" height="55" as="geometry" />
        </mxCell>
        <mxCell id="D7uy60bbqNTtc7ontHt6-52" value="Orcid Ids" style="text;html=1;strokeColor=none;fillColor=none;align=center;verticalAlign=middle;whiteSpace=wrap;rounded=0;" parent="D7uy60bbqNTtc7ontHt6-50" vertex="1">
          <mxGeometry x="70" y="53" width="60" height="30" as="geometry" />
        </mxCell>
        <mxCell id="D7uy60bbqNTtc7ontHt6-53" value="" style="ellipse;whiteSpace=wrap;html=1;" parent="D7uy60bbqNTtc7ontHt6-50" vertex="1">
          <mxGeometry x="47.5" y="110" width="105" height="55" as="geometry" />
        </mxCell>
        <mxCell id="D7uy60bbqNTtc7ontHt6-54" value="Emails" style="text;html=1;strokeColor=none;fillColor=none;align=center;verticalAlign=middle;whiteSpace=wrap;rounded=0;" parent="D7uy60bbqNTtc7ontHt6-50" vertex="1">
          <mxGeometry x="70" y="123" width="60" height="30" as="geometry" />
        </mxCell>
        <mxCell id="D7uy60bbqNTtc7ontHt6-56" value="" style="ellipse;whiteSpace=wrap;html=1;" parent="D7uy60bbqNTtc7ontHt6-50" vertex="1">
          <mxGeometry x="47.5" y="180" width="105" height="55" as="geometry" />
        </mxCell>
        <mxCell id="D7uy60bbqNTtc7ontHt6-57" value="GT Ids" style="text;html=1;strokeColor=none;fillColor=none;align=center;verticalAlign=middle;whiteSpace=wrap;rounded=0;" parent="D7uy60bbqNTtc7ontHt6-50" vertex="1">
          <mxGeometry x="70" y="193" width="60" height="30" as="geometry" />
        </mxCell>
        <mxCell id="D7uy60bbqNTtc7ontHt6-70" style="edgeStyle=orthogonalEdgeStyle;rounded=0;orthogonalLoop=1;jettySize=auto;html=1;exitX=0;exitY=0.5;exitDx=0;exitDy=0;entryX=0;entryY=0.5;entryDx=0;entryDy=0;" parent="D7uy60bbqNTtc7ontHt6-50" source="D7uy60bbqNTtc7ontHt6-50" target="D7uy60bbqNTtc7ontHt6-51" edge="1">
          <mxGeometry relative="1" as="geometry">
            <Array as="points">
              <mxPoint x="30" y="135" />
              <mxPoint x="30" y="68" />
            </Array>
          </mxGeometry>
        </mxCell>
        <mxCell id="D7uy60bbqNTtc7ontHt6-71" value="" style="endArrow=classic;html=1;rounded=0;entryX=0;entryY=0.5;entryDx=0;entryDy=0;" parent="D7uy60bbqNTtc7ontHt6-50" target="D7uy60bbqNTtc7ontHt6-56" edge="1">
          <mxGeometry width="50" height="50" relative="1" as="geometry">
            <mxPoint x="30" y="133" as="sourcePoint" />
            <mxPoint x="30" y="237.5" as="targetPoint" />
            <Array as="points">
              <mxPoint x="30" y="207.5" />
            </Array>
          </mxGeometry>
        </mxCell>
        <mxCell id="D7uy60bbqNTtc7ontHt6-72" value="" style="endArrow=classic;html=1;rounded=0;entryX=0;entryY=0.5;entryDx=0;entryDy=0;" parent="D7uy60bbqNTtc7ontHt6-50" target="D7uy60bbqNTtc7ontHt6-53" edge="1">
          <mxGeometry width="50" height="50" relative="1" as="geometry">
            <mxPoint x="30" y="133" as="sourcePoint" />
            <mxPoint x="80" y="83" as="targetPoint" />
          </mxGeometry>
        </mxCell>
        <mxCell id="D7uy60bbqNTtc7ontHt6-76" value="" style="endArrow=none;html=1;rounded=0;entryX=1;entryY=0.5;entryDx=0;entryDy=0;exitX=1;exitY=0.5;exitDx=0;exitDy=0;endFill=0;" parent="D7uy60bbqNTtc7ontHt6-50" source="D7uy60bbqNTtc7ontHt6-53" target="D7uy60bbqNTtc7ontHt6-50" edge="1">
          <mxGeometry width="50" height="50" relative="1" as="geometry">
            <mxPoint x="150" y="137.5" as="sourcePoint" />
            <mxPoint x="200" y="87.5" as="targetPoint" />
          </mxGeometry>
        </mxCell>
        <mxCell id="D7uy60bbqNTtc7ontHt6-77" value="" style="endArrow=none;html=1;rounded=0;exitX=1;exitY=0.5;exitDx=0;exitDy=0;endFill=0;" parent="D7uy60bbqNTtc7ontHt6-50" source="D7uy60bbqNTtc7ontHt6-51" edge="1">
          <mxGeometry width="50" height="50" relative="1" as="geometry">
            <mxPoint x="160" y="95" as="sourcePoint" />
            <mxPoint x="180" y="137.5" as="targetPoint" />
            <Array as="points">
              <mxPoint x="180" y="67.5" />
            </Array>
          </mxGeometry>
        </mxCell>
        <mxCell id="D7uy60bbqNTtc7ontHt6-78" value="" style="endArrow=none;html=1;rounded=0;exitX=1;exitY=0.5;exitDx=0;exitDy=0;endFill=0;" parent="D7uy60bbqNTtc7ontHt6-50" source="D7uy60bbqNTtc7ontHt6-56" edge="1">
          <mxGeometry width="50" height="50" relative="1" as="geometry">
            <mxPoint x="170" y="237.5" as="sourcePoint" />
            <mxPoint x="180" y="137.5" as="targetPoint" />
            <Array as="points">
              <mxPoint x="180" y="207.5" />
            </Array>
          </mxGeometry>
        </mxCell>
        <mxCell id="D7uy60bbqNTtc7ontHt6-46" value="Orcid API" style="swimlane;whiteSpace=wrap;html=1;startSize=23;" parent="D7uy60bbqNTtc7ontHt6-27" vertex="1">
          <mxGeometry x="500" y="52.5" width="200" height="200" as="geometry" />
        </mxCell>
        <mxCell id="D7uy60bbqNTtc7ontHt6-48" value="" style="ellipse;whiteSpace=wrap;html=1;" parent="D7uy60bbqNTtc7ontHt6-46" vertex="1">
          <mxGeometry x="47.5" y="40" width="105" height="55" as="geometry" />
        </mxCell>
        <mxCell id="D7uy60bbqNTtc7ontHt6-49" value="Orcid Ids" style="text;html=1;strokeColor=none;fillColor=none;align=center;verticalAlign=middle;whiteSpace=wrap;rounded=0;" parent="D7uy60bbqNTtc7ontHt6-46" vertex="1">
          <mxGeometry x="70" y="53" width="60" height="30" as="geometry" />
        </mxCell>
        <mxCell id="A68HXZTNQqmFh4GORsw8-2" value="" style="endArrow=classic;html=1;rounded=0;entryX=0;entryY=0.5;entryDx=0;entryDy=0;endFill=1;" parent="D7uy60bbqNTtc7ontHt6-46" target="D7uy60bbqNTtc7ontHt6-48" edge="1">
          <mxGeometry width="50" height="50" relative="1" as="geometry">
            <mxPoint x="-2.5" y="137.5" as="sourcePoint" />
            <mxPoint x="47.5" y="87.5" as="targetPoint" />
            <Array as="points">
              <mxPoint x="48" y="137.5" />
            </Array>
          </mxGeometry>
        </mxCell>
        <mxCell id="A68HXZTNQqmFh4GORsw8-4" value="" style="endArrow=none;html=1;rounded=0;entryX=1;entryY=0.5;entryDx=0;entryDy=0;endFill=0;" parent="D7uy60bbqNTtc7ontHt6-46" target="D7uy60bbqNTtc7ontHt6-46" edge="1">
          <mxGeometry width="50" height="50" relative="1" as="geometry">
            <mxPoint x="152.5" y="67.5" as="sourcePoint" />
            <mxPoint x="152.5" y="115" as="targetPoint" />
            <Array as="points">
              <mxPoint x="153" y="100.5" />
            </Array>
          </mxGeometry>
        </mxCell>
        <mxCell id="D7uy60bbqNTtc7ontHt6-61" value="" style="ellipse;whiteSpace=wrap;html=1;" parent="D7uy60bbqNTtc7ontHt6-27" vertex="1">
          <mxGeometry x="780" y="210" width="170" height="77.5" as="geometry" />
        </mxCell>
        <mxCell id="D7uy60bbqNTtc7ontHt6-62" value="openalex_work_dump.json&lt;br&gt;Updated information" style="text;html=1;strokeColor=none;fillColor=none;align=center;verticalAlign=middle;whiteSpace=wrap;rounded=0;" parent="D7uy60bbqNTtc7ontHt6-27" vertex="1">
          <mxGeometry x="827.5" y="233.75" width="75" height="30" as="geometry" />
        </mxCell>
        <mxCell id="mCBFNbVrAHuf4ewI3aMc-41" value="" style="ellipse;whiteSpace=wrap;html=1;" parent="D7uy60bbqNTtc7ontHt6-27" vertex="1">
          <mxGeometry x="780" y="122.5" width="170" height="77.5" as="geometry" />
        </mxCell>
        <mxCell id="mCBFNbVrAHuf4ewI3aMc-42" value="openalex_author_dump.json&lt;br&gt;Updated information" style="text;html=1;strokeColor=none;fillColor=none;align=center;verticalAlign=middle;whiteSpace=wrap;rounded=0;" parent="D7uy60bbqNTtc7ontHt6-27" vertex="1">
          <mxGeometry x="827.5" y="146.25" width="75" height="30" as="geometry" />
        </mxCell>
        <mxCell id="mCBFNbVrAHuf4ewI3aMc-47" value="" style="endArrow=classic;html=1;rounded=0;entryX=0;entryY=0.25;entryDx=0;entryDy=0;" parent="D7uy60bbqNTtc7ontHt6-27" target="D7uy60bbqNTtc7ontHt6-50" edge="1">
          <mxGeometry width="50" height="50" relative="1" as="geometry">
            <mxPoint x="190" y="90" as="sourcePoint" />
            <mxPoint x="240" y="40" as="targetPoint" />
          </mxGeometry>
        </mxCell>
        <mxCell id="mCBFNbVrAHuf4ewI3aMc-48" value="" style="endArrow=classic;html=1;rounded=0;entryX=0;entryY=0.5;entryDx=0;entryDy=0;" parent="D7uy60bbqNTtc7ontHt6-27" target="D7uy60bbqNTtc7ontHt6-50" edge="1">
          <mxGeometry width="50" height="50" relative="1" as="geometry">
            <mxPoint x="190" y="240" as="sourcePoint" />
            <mxPoint x="240" y="190" as="targetPoint" />
          </mxGeometry>
        </mxCell>
        <mxCell id="mCBFNbVrAHuf4ewI3aMc-51" value="" style="endArrow=classic;html=1;rounded=0;entryX=0.004;entryY=0.41;entryDx=0;entryDy=0;entryPerimeter=0;" parent="D7uy60bbqNTtc7ontHt6-27" target="mCBFNbVrAHuf4ewI3aMc-41" edge="1">
          <mxGeometry width="50" height="50" relative="1" as="geometry">
            <mxPoint x="700" y="140" as="sourcePoint" />
            <mxPoint x="750" y="90" as="targetPoint" />
          </mxGeometry>
        </mxCell>
        <mxCell id="mCBFNbVrAHuf4ewI3aMc-50" value="" style="endArrow=classic;html=1;rounded=0;entryX=0.004;entryY=0.325;entryDx=0;entryDy=0;entryPerimeter=0;" parent="D7uy60bbqNTtc7ontHt6-27" target="D7uy60bbqNTtc7ontHt6-61" edge="1">
          <mxGeometry width="50" height="50" relative="1" as="geometry">
            <mxPoint x="700" y="180" as="sourcePoint" />
            <mxPoint x="750" y="130" as="targetPoint" />
          </mxGeometry>
        </mxCell>
        <mxCell id="D7uy60bbqNTtc7ontHt6-39" style="edgeStyle=orthogonalEdgeStyle;rounded=0;orthogonalLoop=1;jettySize=auto;html=1;entryX=0;entryY=0.5;entryDx=0;entryDy=0;" parent="1" source="D7uy60bbqNTtc7ontHt6-37" target="D7uy60bbqNTtc7ontHt6-32" edge="1">
          <mxGeometry relative="1" as="geometry" />
        </mxCell>
        <mxCell id="D7uy60bbqNTtc7ontHt6-37" value="Filter:&lt;br&gt;GT last known institution" style="rounded=0;whiteSpace=wrap;html=1;" parent="1" vertex="1">
          <mxGeometry x="-410" y="3150" width="120" height="60" as="geometry" />
        </mxCell>
        <mxCell id="D7uy60bbqNTtc7ontHt6-38" style="edgeStyle=orthogonalEdgeStyle;rounded=0;orthogonalLoop=1;jettySize=auto;html=1;entryX=0;entryY=0.5;entryDx=0;entryDy=0;" parent="1" source="D7uy60bbqNTtc7ontHt6-24" target="D7uy60bbqNTtc7ontHt6-37" edge="1">
          <mxGeometry relative="1" as="geometry" />
        </mxCell>
        <mxCell id="D7uy60bbqNTtc7ontHt6-43" value="" style="endArrow=none;html=1;rounded=0;exitX=1;exitY=0.25;exitDx=0;exitDy=0;" parent="1" source="D7uy60bbqNTtc7ontHt6-37" edge="1">
          <mxGeometry width="50" height="50" relative="1" as="geometry">
            <mxPoint x="-340" y="3100" as="sourcePoint" />
            <mxPoint x="-270" y="3160" as="targetPoint" />
          </mxGeometry>
        </mxCell>
        <mxCell id="D7uy60bbqNTtc7ontHt6-44" style="edgeStyle=orthogonalEdgeStyle;rounded=0;orthogonalLoop=1;jettySize=auto;html=1;entryX=0;entryY=0.5;entryDx=0;entryDy=0;" parent="1" target="D7uy60bbqNTtc7ontHt6-29" edge="1">
          <mxGeometry relative="1" as="geometry">
            <mxPoint x="-560" y="3048" as="sourcePoint" />
          </mxGeometry>
        </mxCell>
        <mxCell id="mCBFNbVrAHuf4ewI3aMc-1" value="works of authors working_at GT" style="edgeLabel;html=1;align=center;verticalAlign=middle;resizable=0;points=[];" parent="D7uy60bbqNTtc7ontHt6-44" vertex="1" connectable="0">
          <mxGeometry x="0.2127" y="-1" relative="1" as="geometry">
            <mxPoint as="offset" />
          </mxGeometry>
        </mxCell>
        <mxCell id="D7uy60bbqNTtc7ontHt6-68" value="Parallelization" style="swimlane;whiteSpace=wrap;html=1;" parent="1" vertex="1">
          <mxGeometry x="760" y="2970" width="240" height="390" as="geometry" />
        </mxCell>
        <mxCell id="A68HXZTNQqmFh4GORsw8-5" value="current_best_author_add.py" style="ellipse;whiteSpace=wrap;html=1;" parent="D7uy60bbqNTtc7ontHt6-68" vertex="1">
          <mxGeometry x="20" y="113.75" width="170" height="77.5" as="geometry" />
        </mxCell>
        <mxCell id="A68HXZTNQqmFh4GORsw8-6" value="" style="endArrow=none;html=1;rounded=0;entryX=-0.021;entryY=1.15;entryDx=0;entryDy=0;entryPerimeter=0;" parent="D7uy60bbqNTtc7ontHt6-68" target="A68HXZTNQqmFh4GORsw8-23" edge="1">
          <mxGeometry width="50" height="50" relative="1" as="geometry">
            <mxPoint x="190" y="156.25" as="sourcePoint" />
            <mxPoint x="310" y="156" as="targetPoint" />
          </mxGeometry>
        </mxCell>
        <mxCell id="A68HXZTNQqmFh4GORsw8-10" value="Another 25" style="edgeLabel;html=1;align=center;verticalAlign=middle;resizable=0;points=[];" parent="A68HXZTNQqmFh4GORsw8-6" vertex="1" connectable="0">
          <mxGeometry x="0.0833" y="-2" relative="1" as="geometry">
            <mxPoint as="offset" />
          </mxGeometry>
        </mxCell>
        <mxCell id="A68HXZTNQqmFh4GORsw8-7" value="" style="endArrow=none;html=1;rounded=0;entryX=-0.014;entryY=0.188;entryDx=0;entryDy=0;entryPerimeter=0;" parent="D7uy60bbqNTtc7ontHt6-68" target="A68HXZTNQqmFh4GORsw8-22" edge="1">
          <mxGeometry width="50" height="50" relative="1" as="geometry">
            <mxPoint x="190" y="150" as="sourcePoint" />
            <mxPoint x="300" y="130" as="targetPoint" />
          </mxGeometry>
        </mxCell>
        <mxCell id="A68HXZTNQqmFh4GORsw8-9" value="Add 25 Pages of authors" style="edgeLabel;html=1;align=center;verticalAlign=middle;resizable=0;points=[];" parent="A68HXZTNQqmFh4GORsw8-7" vertex="1" connectable="0">
          <mxGeometry x="0.1056" y="-1" relative="1" as="geometry">
            <mxPoint as="offset" />
          </mxGeometry>
        </mxCell>
        <mxCell id="A68HXZTNQqmFh4GORsw8-8" value="" style="endArrow=none;html=1;rounded=0;entryX=-0.014;entryY=0.083;entryDx=0;entryDy=0;entryPerimeter=0;" parent="D7uy60bbqNTtc7ontHt6-68" target="A68HXZTNQqmFh4GORsw8-25" edge="1">
          <mxGeometry width="50" height="50" relative="1" as="geometry">
            <mxPoint x="190" y="160" as="sourcePoint" />
            <mxPoint x="310" y="180" as="targetPoint" />
          </mxGeometry>
        </mxCell>
        <mxCell id="A68HXZTNQqmFh4GORsw8-11" value="Another 25" style="edgeLabel;html=1;align=center;verticalAlign=middle;resizable=0;points=[];" parent="A68HXZTNQqmFh4GORsw8-8" vertex="1" connectable="0">
          <mxGeometry x="0.0108" y="-4" relative="1" as="geometry">
            <mxPoint as="offset" />
          </mxGeometry>
        </mxCell>
        <mxCell id="A68HXZTNQqmFh4GORsw8-13" value="Etc." style="edgeLabel;html=1;align=center;verticalAlign=middle;resizable=0;points=[];" parent="A68HXZTNQqmFh4GORsw8-8" vertex="1" connectable="0">
          <mxGeometry x="0.6514" relative="1" as="geometry">
            <mxPoint x="-48" y="31" as="offset" />
          </mxGeometry>
        </mxCell>
        <mxCell id="A68HXZTNQqmFh4GORsw8-14" value="current_best_work_add.py" style="ellipse;whiteSpace=wrap;html=1;" parent="D7uy60bbqNTtc7ontHt6-68" vertex="1">
          <mxGeometry x="20" y="200" width="170" height="77.5" as="geometry" />
        </mxCell>
        <mxCell id="A68HXZTNQqmFh4GORsw8-33" value="" style="endArrow=none;html=1;rounded=0;entryX=0;entryY=0.5;entryDx=0;entryDy=0;" parent="D7uy60bbqNTtc7ontHt6-68" target="A68HXZTNQqmFh4GORsw8-37" edge="1">
          <mxGeometry width="50" height="50" relative="1" as="geometry">
            <mxPoint x="190" y="241.25" as="sourcePoint" />
            <mxPoint x="590" y="160" as="targetPoint" />
          </mxGeometry>
        </mxCell>
        <mxCell id="A68HXZTNQqmFh4GORsw8-57" value="add 1000 lines&lt;br&gt;etc." style="edgeLabel;html=1;align=center;verticalAlign=middle;resizable=0;points=[];" parent="A68HXZTNQqmFh4GORsw8-33" vertex="1" connectable="0">
          <mxGeometry x="-0.4254" y="-1" relative="1" as="geometry">
            <mxPoint y="17" as="offset" />
          </mxGeometry>
        </mxCell>
        <mxCell id="A68HXZTNQqmFh4GORsw8-58" value="" style="endArrow=none;html=1;rounded=0;entryX=0;entryY=0.5;entryDx=0;entryDy=0;" parent="D7uy60bbqNTtc7ontHt6-68" edge="1">
          <mxGeometry width="50" height="50" relative="1" as="geometry">
            <mxPoint x="190" y="233.25" as="sourcePoint" />
            <mxPoint x="530" y="140" as="targetPoint" />
          </mxGeometry>
        </mxCell>
        <mxCell id="A68HXZTNQqmFh4GORsw8-59" value="add 1000 lines" style="edgeLabel;html=1;align=center;verticalAlign=middle;resizable=0;points=[];" parent="A68HXZTNQqmFh4GORsw8-58" vertex="1" connectable="0">
          <mxGeometry x="-0.4254" y="-1" relative="1" as="geometry">
            <mxPoint as="offset" />
          </mxGeometry>
        </mxCell>
        <mxCell id="A68HXZTNQqmFh4GORsw8-12" value="Neo4J" style="swimlane;whiteSpace=wrap;html=1;" parent="1" vertex="1">
          <mxGeometry x="1090" y="2970" width="560" height="720" as="geometry" />
        </mxCell>
        <mxCell id="A68HXZTNQqmFh4GORsw8-22" value="Author" style="swimlane;fontStyle=0;childLayout=stackLayout;horizontal=1;startSize=30;horizontalStack=0;resizeParent=1;resizeParentMax=0;resizeLast=0;collapsible=1;marginBottom=0;whiteSpace=wrap;html=1;" parent="A68HXZTNQqmFh4GORsw8-12" vertex="1">
          <mxGeometry x="30" y="42.5" width="140" height="300" as="geometry" />
        </mxCell>
        <mxCell id="A68HXZTNQqmFh4GORsw8-23" value="name" style="text;strokeColor=none;fillColor=none;align=left;verticalAlign=middle;spacingLeft=4;spacingRight=4;overflow=hidden;points=[[0,0.5],[1,0.5]];portConstraint=eastwest;rotatable=0;whiteSpace=wrap;html=1;" parent="A68HXZTNQqmFh4GORsw8-22" vertex="1">
          <mxGeometry y="30" width="140" height="30" as="geometry" />
        </mxCell>
        <mxCell id="A68HXZTNQqmFh4GORsw8-24" value="cited_by_count" style="text;strokeColor=none;fillColor=none;align=left;verticalAlign=middle;spacingLeft=4;spacingRight=4;overflow=hidden;points=[[0,0.5],[1,0.5]];portConstraint=eastwest;rotatable=0;whiteSpace=wrap;html=1;" parent="A68HXZTNQqmFh4GORsw8-22" vertex="1">
          <mxGeometry y="60" width="140" height="30" as="geometry" />
        </mxCell>
        <mxCell id="A68HXZTNQqmFh4GORsw8-25" value="created_date" style="text;strokeColor=none;fillColor=none;align=left;verticalAlign=middle;spacingLeft=4;spacingRight=4;overflow=hidden;points=[[0,0.5],[1,0.5]];portConstraint=eastwest;rotatable=0;whiteSpace=wrap;html=1;" parent="A68HXZTNQqmFh4GORsw8-22" vertex="1">
          <mxGeometry y="90" width="140" height="30" as="geometry" />
        </mxCell>
        <mxCell id="A68HXZTNQqmFh4GORsw8-29" value="orcid" style="text;strokeColor=none;fillColor=none;align=left;verticalAlign=middle;spacingLeft=4;spacingRight=4;overflow=hidden;points=[[0,0.5],[1,0.5]];portConstraint=eastwest;rotatable=0;whiteSpace=wrap;html=1;" parent="A68HXZTNQqmFh4GORsw8-22" vertex="1">
          <mxGeometry y="120" width="140" height="30" as="geometry" />
        </mxCell>
        <mxCell id="A68HXZTNQqmFh4GORsw8-32" value="works_count" style="text;strokeColor=none;fillColor=none;align=left;verticalAlign=middle;spacingLeft=4;spacingRight=4;overflow=hidden;points=[[0,0.5],[1,0.5]];portConstraint=eastwest;rotatable=0;whiteSpace=wrap;html=1;" parent="A68HXZTNQqmFh4GORsw8-22" vertex="1">
          <mxGeometry y="150" width="140" height="30" as="geometry" />
        </mxCell>
        <mxCell id="A68HXZTNQqmFh4GORsw8-30" value="updated_date" style="text;strokeColor=none;fillColor=none;align=left;verticalAlign=middle;spacingLeft=4;spacingRight=4;overflow=hidden;points=[[0,0.5],[1,0.5]];portConstraint=eastwest;rotatable=0;whiteSpace=wrap;html=1;" parent="A68HXZTNQqmFh4GORsw8-22" vertex="1">
          <mxGeometry y="180" width="140" height="30" as="geometry" />
        </mxCell>
        <mxCell id="A68HXZTNQqmFh4GORsw8-31" value="works_api_url" style="text;strokeColor=none;fillColor=none;align=left;verticalAlign=middle;spacingLeft=4;spacingRight=4;overflow=hidden;points=[[0,0.5],[1,0.5]];portConstraint=eastwest;rotatable=0;whiteSpace=wrap;html=1;" parent="A68HXZTNQqmFh4GORsw8-22" vertex="1">
          <mxGeometry y="210" width="140" height="30" as="geometry" />
        </mxCell>
        <mxCell id="A68HXZTNQqmFh4GORsw8-38" value="id" style="text;strokeColor=none;fillColor=none;align=left;verticalAlign=middle;spacingLeft=4;spacingRight=4;overflow=hidden;points=[[0,0.5],[1,0.5]];portConstraint=eastwest;rotatable=0;whiteSpace=wrap;html=1;" parent="A68HXZTNQqmFh4GORsw8-22" vertex="1">
          <mxGeometry y="240" width="140" height="30" as="geometry" />
        </mxCell>
        <mxCell id="A68HXZTNQqmFh4GORsw8-28" value="display_name_alternatives" style="text;strokeColor=none;fillColor=none;align=left;verticalAlign=middle;spacingLeft=4;spacingRight=4;overflow=hidden;points=[[0,0.5],[1,0.5]];portConstraint=eastwest;rotatable=0;whiteSpace=wrap;html=1;" parent="A68HXZTNQqmFh4GORsw8-22" vertex="1">
          <mxGeometry y="270" width="140" height="30" as="geometry" />
        </mxCell>
        <mxCell id="A68HXZTNQqmFh4GORsw8-34" value="Work" style="swimlane;fontStyle=0;childLayout=stackLayout;horizontal=1;startSize=30;horizontalStack=0;resizeParent=1;resizeParentMax=0;resizeLast=0;collapsible=1;marginBottom=0;whiteSpace=wrap;html=1;" parent="A68HXZTNQqmFh4GORsw8-12" vertex="1">
          <mxGeometry x="200" y="42.5" width="140" height="660" as="geometry" />
        </mxCell>
        <mxCell id="A68HXZTNQqmFh4GORsw8-35" value="name" style="text;strokeColor=none;fillColor=none;align=left;verticalAlign=middle;spacingLeft=4;spacingRight=4;overflow=hidden;points=[[0,0.5],[1,0.5]];portConstraint=eastwest;rotatable=0;whiteSpace=wrap;html=1;" parent="A68HXZTNQqmFh4GORsw8-34" vertex="1">
          <mxGeometry y="30" width="140" height="30" as="geometry" />
        </mxCell>
        <mxCell id="A68HXZTNQqmFh4GORsw8-36" value="cited_by_api_url" style="text;strokeColor=none;fillColor=none;align=left;verticalAlign=middle;spacingLeft=4;spacingRight=4;overflow=hidden;points=[[0,0.5],[1,0.5]];portConstraint=eastwest;rotatable=0;whiteSpace=wrap;html=1;" parent="A68HXZTNQqmFh4GORsw8-34" vertex="1">
          <mxGeometry y="60" width="140" height="30" as="geometry" />
        </mxCell>
        <mxCell id="A68HXZTNQqmFh4GORsw8-37" value="cited_by_count" style="text;strokeColor=none;fillColor=none;align=left;verticalAlign=middle;spacingLeft=4;spacingRight=4;overflow=hidden;points=[[0,0.5],[1,0.5]];portConstraint=eastwest;rotatable=0;whiteSpace=wrap;html=1;" parent="A68HXZTNQqmFh4GORsw8-34" vertex="1">
          <mxGeometry y="90" width="140" height="30" as="geometry" />
        </mxCell>
        <mxCell id="A68HXZTNQqmFh4GORsw8-40" value="corresponding_institution_ids" style="text;strokeColor=none;fillColor=none;align=left;verticalAlign=middle;spacingLeft=4;spacingRight=4;overflow=hidden;points=[[0,0.5],[1,0.5]];portConstraint=eastwest;rotatable=0;whiteSpace=wrap;html=1;" parent="A68HXZTNQqmFh4GORsw8-34" vertex="1">
          <mxGeometry y="120" width="140" height="30" as="geometry" />
        </mxCell>
        <mxCell id="A68HXZTNQqmFh4GORsw8-39" value="corresponding_author_ids" style="text;strokeColor=none;fillColor=none;align=left;verticalAlign=middle;spacingLeft=4;spacingRight=4;overflow=hidden;points=[[0,0.5],[1,0.5]];portConstraint=eastwest;rotatable=0;whiteSpace=wrap;html=1;" parent="A68HXZTNQqmFh4GORsw8-34" vertex="1">
          <mxGeometry y="150" width="140" height="30" as="geometry" />
        </mxCell>
        <mxCell id="A68HXZTNQqmFh4GORsw8-78" value="" style="endArrow=none;html=1;rounded=0;entryX=0.421;entryY=1.033;entryDx=0;entryDy=0;entryPerimeter=0;" parent="A68HXZTNQqmFh4GORsw8-34" target="A68HXZTNQqmFh4GORsw8-63" edge="1">
          <mxGeometry width="50" height="50" relative="1" as="geometry">
            <mxPoint x="-30" y="210" as="sourcePoint" />
            <mxPoint x="20" y="160" as="targetPoint" />
          </mxGeometry>
        </mxCell>
        <mxCell id="A68HXZTNQqmFh4GORsw8-79" value="worked_at" style="edgeLabel;html=1;align=center;verticalAlign=middle;resizable=0;points=[];" parent="A68HXZTNQqmFh4GORsw8-78" vertex="1" connectable="0">
          <mxGeometry x="0.48" y="-2" relative="1" as="geometry">
            <mxPoint x="27" y="7" as="offset" />
          </mxGeometry>
        </mxCell>
        <mxCell id="A68HXZTNQqmFh4GORsw8-41" value="created_date" style="text;strokeColor=none;fillColor=none;align=left;verticalAlign=middle;spacingLeft=4;spacingRight=4;overflow=hidden;points=[[0,0.5],[1,0.5]];portConstraint=eastwest;rotatable=0;whiteSpace=wrap;html=1;" parent="A68HXZTNQqmFh4GORsw8-34" vertex="1">
          <mxGeometry y="180" width="140" height="30" as="geometry" />
        </mxCell>
        <mxCell id="A68HXZTNQqmFh4GORsw8-42" value="doi" style="text;strokeColor=none;fillColor=none;align=left;verticalAlign=middle;spacingLeft=4;spacingRight=4;overflow=hidden;points=[[0,0.5],[1,0.5]];portConstraint=eastwest;rotatable=0;whiteSpace=wrap;html=1;" parent="A68HXZTNQqmFh4GORsw8-34" vertex="1">
          <mxGeometry y="210" width="140" height="30" as="geometry" />
        </mxCell>
        <mxCell id="A68HXZTNQqmFh4GORsw8-43" value="is_paratext" style="text;strokeColor=none;fillColor=none;align=left;verticalAlign=middle;spacingLeft=4;spacingRight=4;overflow=hidden;points=[[0,0.5],[1,0.5]];portConstraint=eastwest;rotatable=0;whiteSpace=wrap;html=1;" parent="A68HXZTNQqmFh4GORsw8-34" vertex="1">
          <mxGeometry y="240" width="140" height="30" as="geometry" />
        </mxCell>
        <mxCell id="A68HXZTNQqmFh4GORsw8-44" value="is_retracted" style="text;strokeColor=none;fillColor=none;align=left;verticalAlign=middle;spacingLeft=4;spacingRight=4;overflow=hidden;points=[[0,0.5],[1,0.5]];portConstraint=eastwest;rotatable=0;whiteSpace=wrap;html=1;" parent="A68HXZTNQqmFh4GORsw8-34" vertex="1">
          <mxGeometry y="270" width="140" height="30" as="geometry" />
        </mxCell>
        <mxCell id="A68HXZTNQqmFh4GORsw8-45" value="language" style="text;strokeColor=none;fillColor=none;align=left;verticalAlign=middle;spacingLeft=4;spacingRight=4;overflow=hidden;points=[[0,0.5],[1,0.5]];portConstraint=eastwest;rotatable=0;whiteSpace=wrap;html=1;" parent="A68HXZTNQqmFh4GORsw8-34" vertex="1">
          <mxGeometry y="300" width="140" height="30" as="geometry" />
        </mxCell>
        <mxCell id="A68HXZTNQqmFh4GORsw8-46" value="publication_date" style="text;strokeColor=none;fillColor=none;align=left;verticalAlign=middle;spacingLeft=4;spacingRight=4;overflow=hidden;points=[[0,0.5],[1,0.5]];portConstraint=eastwest;rotatable=0;whiteSpace=wrap;html=1;" parent="A68HXZTNQqmFh4GORsw8-34" vertex="1">
          <mxGeometry y="330" width="140" height="30" as="geometry" />
        </mxCell>
        <mxCell id="A68HXZTNQqmFh4GORsw8-47" value="publication_year" style="text;strokeColor=none;fillColor=none;align=left;verticalAlign=middle;spacingLeft=4;spacingRight=4;overflow=hidden;points=[[0,0.5],[1,0.5]];portConstraint=eastwest;rotatable=0;whiteSpace=wrap;html=1;" parent="A68HXZTNQqmFh4GORsw8-34" vertex="1">
          <mxGeometry y="360" width="140" height="30" as="geometry" />
        </mxCell>
        <mxCell id="A68HXZTNQqmFh4GORsw8-56" value="version" style="text;strokeColor=none;fillColor=none;align=left;verticalAlign=middle;spacingLeft=4;spacingRight=4;overflow=hidden;points=[[0,0.5],[1,0.5]];portConstraint=eastwest;rotatable=0;whiteSpace=wrap;html=1;" parent="A68HXZTNQqmFh4GORsw8-34" vertex="1">
          <mxGeometry y="390" width="140" height="30" as="geometry" />
        </mxCell>
        <mxCell id="A68HXZTNQqmFh4GORsw8-49" value="related_works" style="text;strokeColor=none;fillColor=none;align=left;verticalAlign=middle;spacingLeft=4;spacingRight=4;overflow=hidden;points=[[0,0.5],[1,0.5]];portConstraint=eastwest;rotatable=0;whiteSpace=wrap;html=1;" parent="A68HXZTNQqmFh4GORsw8-34" vertex="1">
          <mxGeometry y="420" width="140" height="30" as="geometry" />
        </mxCell>
        <mxCell id="A68HXZTNQqmFh4GORsw8-55" value="url" style="text;strokeColor=none;fillColor=none;align=left;verticalAlign=middle;spacingLeft=4;spacingRight=4;overflow=hidden;points=[[0,0.5],[1,0.5]];portConstraint=eastwest;rotatable=0;whiteSpace=wrap;html=1;" parent="A68HXZTNQqmFh4GORsw8-34" vertex="1">
          <mxGeometry y="450" width="140" height="30" as="geometry" />
        </mxCell>
        <mxCell id="A68HXZTNQqmFh4GORsw8-48" value="referenced_works" style="text;strokeColor=none;fillColor=none;align=left;verticalAlign=middle;spacingLeft=4;spacingRight=4;overflow=hidden;points=[[0,0.5],[1,0.5]];portConstraint=eastwest;rotatable=0;whiteSpace=wrap;html=1;" parent="A68HXZTNQqmFh4GORsw8-34" vertex="1">
          <mxGeometry y="480" width="140" height="30" as="geometry" />
        </mxCell>
        <mxCell id="A68HXZTNQqmFh4GORsw8-54" value="license" style="text;strokeColor=none;fillColor=none;align=left;verticalAlign=middle;spacingLeft=4;spacingRight=4;overflow=hidden;points=[[0,0.5],[1,0.5]];portConstraint=eastwest;rotatable=0;whiteSpace=wrap;html=1;" parent="A68HXZTNQqmFh4GORsw8-34" vertex="1">
          <mxGeometry y="510" width="140" height="30" as="geometry" />
        </mxCell>
        <mxCell id="A68HXZTNQqmFh4GORsw8-53" value="is_oa" style="text;strokeColor=none;fillColor=none;align=left;verticalAlign=middle;spacingLeft=4;spacingRight=4;overflow=hidden;points=[[0,0.5],[1,0.5]];portConstraint=eastwest;rotatable=0;whiteSpace=wrap;html=1;" parent="A68HXZTNQqmFh4GORsw8-34" vertex="1">
          <mxGeometry y="540" width="140" height="30" as="geometry" />
        </mxCell>
        <mxCell id="A68HXZTNQqmFh4GORsw8-50" value="title" style="text;strokeColor=none;fillColor=none;align=left;verticalAlign=middle;spacingLeft=4;spacingRight=4;overflow=hidden;points=[[0,0.5],[1,0.5]];portConstraint=eastwest;rotatable=0;whiteSpace=wrap;html=1;" parent="A68HXZTNQqmFh4GORsw8-34" vertex="1">
          <mxGeometry y="570" width="140" height="30" as="geometry" />
        </mxCell>
        <mxCell id="A68HXZTNQqmFh4GORsw8-52" value="updated_date" style="text;strokeColor=none;fillColor=none;align=left;verticalAlign=middle;spacingLeft=4;spacingRight=4;overflow=hidden;points=[[0,0.5],[1,0.5]];portConstraint=eastwest;rotatable=0;whiteSpace=wrap;html=1;" parent="A68HXZTNQqmFh4GORsw8-34" vertex="1">
          <mxGeometry y="600" width="140" height="30" as="geometry" />
        </mxCell>
        <mxCell id="A68HXZTNQqmFh4GORsw8-51" value="type" style="text;strokeColor=none;fillColor=none;align=left;verticalAlign=middle;spacingLeft=4;spacingRight=4;overflow=hidden;points=[[0,0.5],[1,0.5]];portConstraint=eastwest;rotatable=0;whiteSpace=wrap;html=1;" parent="A68HXZTNQqmFh4GORsw8-34" vertex="1">
          <mxGeometry y="630" width="140" height="30" as="geometry" />
        </mxCell>
        <mxCell id="A68HXZTNQqmFh4GORsw8-60" value="Institution" style="swimlane;fontStyle=0;childLayout=stackLayout;horizontal=1;startSize=30;horizontalStack=0;resizeParent=1;resizeParentMax=0;resizeLast=0;collapsible=1;marginBottom=0;whiteSpace=wrap;html=1;" parent="A68HXZTNQqmFh4GORsw8-12" vertex="1">
          <mxGeometry x="370" y="42.5" width="140" height="150" as="geometry" />
        </mxCell>
        <mxCell id="A68HXZTNQqmFh4GORsw8-61" value="name" style="text;strokeColor=none;fillColor=none;align=left;verticalAlign=middle;spacingLeft=4;spacingRight=4;overflow=hidden;points=[[0,0.5],[1,0.5]];portConstraint=eastwest;rotatable=0;whiteSpace=wrap;html=1;" parent="A68HXZTNQqmFh4GORsw8-60" vertex="1">
          <mxGeometry y="30" width="140" height="30" as="geometry" />
        </mxCell>
        <mxCell id="A68HXZTNQqmFh4GORsw8-62" value="ror" style="text;strokeColor=none;fillColor=none;align=left;verticalAlign=middle;spacingLeft=4;spacingRight=4;overflow=hidden;points=[[0,0.5],[1,0.5]];portConstraint=eastwest;rotatable=0;whiteSpace=wrap;html=1;" parent="A68HXZTNQqmFh4GORsw8-60" vertex="1">
          <mxGeometry y="60" width="140" height="30" as="geometry" />
        </mxCell>
        <mxCell id="A68HXZTNQqmFh4GORsw8-70" value="type" style="text;strokeColor=none;fillColor=none;align=left;verticalAlign=middle;spacingLeft=4;spacingRight=4;overflow=hidden;points=[[0,0.5],[1,0.5]];portConstraint=eastwest;rotatable=0;whiteSpace=wrap;html=1;" parent="A68HXZTNQqmFh4GORsw8-60" vertex="1">
          <mxGeometry y="90" width="140" height="30" as="geometry" />
        </mxCell>
        <mxCell id="A68HXZTNQqmFh4GORsw8-63" value="country_code" style="text;strokeColor=none;fillColor=none;align=left;verticalAlign=middle;spacingLeft=4;spacingRight=4;overflow=hidden;points=[[0,0.5],[1,0.5]];portConstraint=eastwest;rotatable=0;whiteSpace=wrap;html=1;" parent="A68HXZTNQqmFh4GORsw8-60" vertex="1">
          <mxGeometry y="120" width="140" height="30" as="geometry" />
        </mxCell>
        <mxCell id="A68HXZTNQqmFh4GORsw8-80" value="" style="endArrow=none;html=1;rounded=0;entryX=0.664;entryY=1.133;entryDx=0;entryDy=0;entryPerimeter=0;" parent="A68HXZTNQqmFh4GORsw8-12" target="A68HXZTNQqmFh4GORsw8-63" edge="1">
          <mxGeometry width="50" height="50" relative="1" as="geometry">
            <mxPoint x="170" y="230" as="sourcePoint" />
            <mxPoint x="220" y="180" as="targetPoint" />
          </mxGeometry>
        </mxCell>
        <mxCell id="A68HXZTNQqmFh4GORsw8-84" value="working_at" style="edgeLabel;html=1;align=center;verticalAlign=middle;resizable=0;points=[];" parent="A68HXZTNQqmFh4GORsw8-12" vertex="1" connectable="0">
          <mxGeometry x="480.00375119765545" y="209.9987569910104" as="geometry" />
        </mxCell>
        <mxCell id="mCBFNbVrAHuf4ewI3aMc-7" value="" style="curved=1;endArrow=classic;html=1;rounded=0;" parent="A68HXZTNQqmFh4GORsw8-12" edge="1">
          <mxGeometry width="50" height="50" relative="1" as="geometry">
            <mxPoint x="110" y="343" as="sourcePoint" />
            <mxPoint x="60" y="342.5" as="targetPoint" />
            <Array as="points">
              <mxPoint x="110" y="392.5" />
              <mxPoint x="60" y="342.5" />
            </Array>
          </mxGeometry>
        </mxCell>
        <mxCell id="mCBFNbVrAHuf4ewI3aMc-8" value="Authored_with" style="edgeLabel;html=1;align=center;verticalAlign=middle;resizable=0;points=[];" parent="mCBFNbVrAHuf4ewI3aMc-7" vertex="1" connectable="0">
          <mxGeometry x="0.3654" y="-15" relative="1" as="geometry">
            <mxPoint as="offset" />
          </mxGeometry>
        </mxCell>
        <mxCell id="mCBFNbVrAHuf4ewI3aMc-9" value="Authored" style="endArrow=classic;html=1;rounded=0;entryX=-0.029;entryY=0.483;entryDx=0;entryDy=0;entryPerimeter=0;" parent="A68HXZTNQqmFh4GORsw8-12" target="A68HXZTNQqmFh4GORsw8-46" edge="1">
          <mxGeometry width="50" height="50" relative="1" as="geometry">
            <mxPoint x="140" y="342.5" as="sourcePoint" />
            <mxPoint x="190" y="292.5" as="targetPoint" />
          </mxGeometry>
        </mxCell>
        <mxCell id="A68HXZTNQqmFh4GORsw8-68" value="" style="endArrow=none;html=1;rounded=0;entryX=0;entryY=0.5;entryDx=0;entryDy=0;" parent="1" target="A68HXZTNQqmFh4GORsw8-63" edge="1">
          <mxGeometry width="50" height="50" relative="1" as="geometry">
            <mxPoint x="950" y="3220" as="sourcePoint" />
            <mxPoint x="1530" y="3260" as="targetPoint" />
          </mxGeometry>
        </mxCell>
        <mxCell id="A68HXZTNQqmFh4GORsw8-69" value="authorship.institutions" style="edgeLabel;html=1;align=center;verticalAlign=middle;resizable=0;points=[];" parent="A68HXZTNQqmFh4GORsw8-68" vertex="1" connectable="0">
          <mxGeometry x="-0.7731" y="3" relative="1" as="geometry">
            <mxPoint x="23" y="11" as="offset" />
          </mxGeometry>
        </mxCell>
        <mxCell id="A68HXZTNQqmFh4GORsw8-72" value="authorships.author" style="endArrow=none;html=1;rounded=0;exitX=0.824;exitY=0.935;exitDx=0;exitDy=0;exitPerimeter=0;entryX=0;entryY=0.5;entryDx=0;entryDy=0;" parent="1" source="A68HXZTNQqmFh4GORsw8-14" target="A68HXZTNQqmFh4GORsw8-28" edge="1">
          <mxGeometry width="50" height="50" relative="1" as="geometry">
            <mxPoint x="1040" y="3360" as="sourcePoint" />
            <mxPoint x="1090" y="3310" as="targetPoint" />
          </mxGeometry>
        </mxCell>
        <mxCell id="mCBFNbVrAHuf4ewI3aMc-3" value="Filter:&lt;br&gt;GT in authorships.institutions" style="rounded=0;whiteSpace=wrap;html=1;" parent="1" vertex="1">
          <mxGeometry x="-410" y="2870" width="120" height="60" as="geometry" />
        </mxCell>
        <mxCell id="mCBFNbVrAHuf4ewI3aMc-5" value="" style="endArrow=classic;html=1;rounded=0;entryX=0.011;entryY=0.339;entryDx=0;entryDy=0;entryPerimeter=0;exitX=1;exitY=0.5;exitDx=0;exitDy=0;" parent="1" source="mCBFNbVrAHuf4ewI3aMc-3" target="D7uy60bbqNTtc7ontHt6-29" edge="1">
          <mxGeometry width="50" height="50" relative="1" as="geometry">
            <mxPoint x="-290" y="2970" as="sourcePoint" />
            <mxPoint x="-240" y="2920" as="targetPoint" />
          </mxGeometry>
        </mxCell>
        <mxCell id="mCBFNbVrAHuf4ewI3aMc-10" value="works of authors worked_at GT" style="edgeLabel;html=1;align=center;verticalAlign=middle;resizable=0;points=[];" parent="mCBFNbVrAHuf4ewI3aMc-5" vertex="1" connectable="0">
          <mxGeometry x="-0.3351" y="-1" relative="1" as="geometry">
            <mxPoint x="65" y="-9" as="offset" />
          </mxGeometry>
        </mxCell>
        <mxCell id="mCBFNbVrAHuf4ewI3aMc-11" value="" style="endArrow=classic;html=1;rounded=0;" parent="1" edge="1">
          <mxGeometry width="50" height="50" relative="1" as="geometry">
            <mxPoint x="-350.4" y="2930" as="sourcePoint" />
            <mxPoint x="-350.4" y="2970" as="targetPoint" />
          </mxGeometry>
        </mxCell>
        <mxCell id="mCBFNbVrAHuf4ewI3aMc-14" value="calls author api" style="edgeLabel;html=1;align=center;verticalAlign=middle;resizable=0;points=[];" parent="mCBFNbVrAHuf4ewI3aMc-11" vertex="1" connectable="0">
          <mxGeometry x="-0.17" relative="1" as="geometry">
            <mxPoint as="offset" />
          </mxGeometry>
        </mxCell>
        <mxCell id="mCBFNbVrAHuf4ewI3aMc-12" value="Add last_known_institution" style="rounded=0;whiteSpace=wrap;html=1;" parent="1" vertex="1">
          <mxGeometry x="-410" y="2970" width="120" height="60" as="geometry" />
        </mxCell>
        <mxCell id="mCBFNbVrAHuf4ewI3aMc-15" style="edgeStyle=orthogonalEdgeStyle;rounded=0;orthogonalLoop=1;jettySize=auto;html=1;" parent="1" source="D7uy60bbqNTtc7ontHt6-61" target="A68HXZTNQqmFh4GORsw8-14" edge="1">
          <mxGeometry relative="1" as="geometry" />
        </mxCell>
        <mxCell id="mCBFNbVrAHuf4ewI3aMc-43" style="edgeStyle=orthogonalEdgeStyle;rounded=0;orthogonalLoop=1;jettySize=auto;html=1;entryX=0;entryY=0.5;entryDx=0;entryDy=0;" parent="1" source="mCBFNbVrAHuf4ewI3aMc-41" target="A68HXZTNQqmFh4GORsw8-5" edge="1">
          <mxGeometry relative="1" as="geometry" />
        </mxCell>
        <mxCell id="mCBFNbVrAHuf4ewI3aMc-49" value="Add gt ids, orcids, etc." style="text;html=1;align=center;verticalAlign=middle;resizable=0;points=[];autosize=1;strokeColor=none;fillColor=none;" parent="1" vertex="1">
          <mxGeometry x="-110" y="3128" width="140" height="30" as="geometry" />
        </mxCell>
        <mxCell id="mCBFNbVrAHuf4ewI3aMc-53" value="" style="endArrow=classic;html=1;rounded=0;entryX=0;entryY=0;entryDx=0;entryDy=0;" parent="1" target="D7uy60bbqNTtc7ontHt6-32" edge="1">
          <mxGeometry width="50" height="50" relative="1" as="geometry">
            <mxPoint x="-290" y="3020" as="sourcePoint" />
            <mxPoint x="-240" y="2970" as="targetPoint" />
          </mxGeometry>
        </mxCell>
        <mxCell id="mCBFNbVrAHuf4ewI3aMc-54" value="Authors worked_at GT" style="edgeLabel;html=1;align=center;verticalAlign=middle;resizable=0;points=[];" parent="mCBFNbVrAHuf4ewI3aMc-53" vertex="1" connectable="0">
          <mxGeometry x="0.546" y="2" relative="1" as="geometry">
            <mxPoint as="offset" />
          </mxGeometry>
        </mxCell>
        <mxCell id="llRP50ADG-5y6TPERRPI-1" value="&lt;b&gt;Mid Summer Workflow Goal&lt;br&gt;&lt;/b&gt;" style="text;html=1;strokeColor=none;fillColor=none;align=center;verticalAlign=middle;whiteSpace=wrap;rounded=0;" parent="1" vertex="1">
          <mxGeometry x="-780" y="2780" width="250" height="60" as="geometry" />
        </mxCell>
        <mxCell id="llRP50ADG-5y6TPERRPI-2" value="&lt;b&gt;Current Workflow Diagram&lt;br&gt;&lt;/b&gt;" style="text;html=1;strokeColor=none;fillColor=none;align=center;verticalAlign=middle;whiteSpace=wrap;rounded=0;" parent="1" vertex="1">
          <mxGeometry x="-750" y="1130" width="250" height="60" as="geometry" />
        </mxCell>
        <mxCell id="llRP50ADG-5y6TPERRPI-131" value="OpenAlex Entities" style="swimlane;whiteSpace=wrap;html=1;" parent="1" vertex="1">
          <mxGeometry x="-780" y="1300" width="330" height="610" as="geometry" />
        </mxCell>
        <mxCell id="llRP50ADG-5y6TPERRPI-132" value="" style="ellipse;whiteSpace=wrap;html=1;" parent="llRP50ADG-5y6TPERRPI-131" vertex="1">
          <mxGeometry x="112.5" y="40" width="105" height="55" as="geometry" />
        </mxCell>
        <mxCell id="llRP50ADG-5y6TPERRPI-133" value="" style="ellipse;whiteSpace=wrap;html=1;" parent="llRP50ADG-5y6TPERRPI-131" vertex="1">
          <mxGeometry x="112.5" y="110" width="105" height="55" as="geometry" />
        </mxCell>
        <mxCell id="llRP50ADG-5y6TPERRPI-134" value="" style="ellipse;whiteSpace=wrap;html=1;" parent="llRP50ADG-5y6TPERRPI-131" vertex="1">
          <mxGeometry x="112.5" y="180" width="105" height="55" as="geometry" />
        </mxCell>
        <mxCell id="llRP50ADG-5y6TPERRPI-135" value="" style="ellipse;whiteSpace=wrap;html=1;" parent="llRP50ADG-5y6TPERRPI-131" vertex="1">
          <mxGeometry x="112.5" y="250" width="105" height="55" as="geometry" />
        </mxCell>
        <mxCell id="llRP50ADG-5y6TPERRPI-136" value="" style="ellipse;whiteSpace=wrap;html=1;" parent="llRP50ADG-5y6TPERRPI-131" vertex="1">
          <mxGeometry x="112.5" y="460" width="105" height="55" as="geometry" />
        </mxCell>
        <mxCell id="llRP50ADG-5y6TPERRPI-137" value="" style="ellipse;whiteSpace=wrap;html=1;" parent="llRP50ADG-5y6TPERRPI-131" vertex="1">
          <mxGeometry x="112.5" y="390" width="105" height="55" as="geometry" />
        </mxCell>
        <mxCell id="llRP50ADG-5y6TPERRPI-138" value="" style="ellipse;whiteSpace=wrap;html=1;" parent="llRP50ADG-5y6TPERRPI-131" vertex="1">
          <mxGeometry x="112.5" y="320" width="105" height="55" as="geometry" />
        </mxCell>
        <mxCell id="llRP50ADG-5y6TPERRPI-139" value="Works&lt;br&gt;â€¢Authorships" style="text;html=1;align=center;verticalAlign=middle;resizable=0;points=[];autosize=1;strokeColor=none;fillColor=none;" parent="llRP50ADG-5y6TPERRPI-131" vertex="1">
          <mxGeometry x="120" y="47.5" width="90" height="40" as="geometry" />
        </mxCell>
        <mxCell id="llRP50ADG-5y6TPERRPI-140" value="Institutions" style="text;html=1;align=center;verticalAlign=middle;resizable=0;points=[];autosize=1;strokeColor=none;fillColor=none;" parent="llRP50ADG-5y6TPERRPI-131" vertex="1">
          <mxGeometry x="125" y="122.5" width="80" height="30" as="geometry" />
        </mxCell>
        <mxCell id="llRP50ADG-5y6TPERRPI-149" style="edgeStyle=orthogonalEdgeStyle;rounded=0;orthogonalLoop=1;jettySize=auto;html=1;entryX=0;entryY=0.5;entryDx=0;entryDy=0;strokeColor=#5A47FF;" parent="llRP50ADG-5y6TPERRPI-131" target="llRP50ADG-5y6TPERRPI-150" edge="1">
          <mxGeometry relative="1" as="geometry">
            <mxPoint x="370" y="208" as="targetPoint" />
            <mxPoint x="220" y="208" as="sourcePoint" />
          </mxGeometry>
        </mxCell>
        <mxCell id="llRP50ADG-5y6TPERRPI-170" value="All OpenAlex Authors" style="edgeLabel;html=1;align=center;verticalAlign=middle;resizable=0;points=[];" parent="llRP50ADG-5y6TPERRPI-149" vertex="1" connectable="0">
          <mxGeometry x="0.1213" y="-2" relative="1" as="geometry">
            <mxPoint as="offset" />
          </mxGeometry>
        </mxCell>
        <mxCell id="llRP50ADG-5y6TPERRPI-141" value="Authors" style="text;html=1;align=center;verticalAlign=middle;resizable=0;points=[];autosize=1;strokeColor=none;fillColor=none;" parent="llRP50ADG-5y6TPERRPI-131" vertex="1">
          <mxGeometry x="135" y="192.5" width="60" height="30" as="geometry" />
        </mxCell>
        <mxCell id="llRP50ADG-5y6TPERRPI-142" value="Sources" style="text;html=1;align=center;verticalAlign=middle;resizable=0;points=[];autosize=1;strokeColor=none;fillColor=none;" parent="llRP50ADG-5y6TPERRPI-131" vertex="1">
          <mxGeometry x="130" y="262.5" width="70" height="30" as="geometry" />
        </mxCell>
        <mxCell id="llRP50ADG-5y6TPERRPI-143" value="Concepts" style="text;html=1;align=center;verticalAlign=middle;resizable=0;points=[];autosize=1;strokeColor=none;fillColor=none;" parent="llRP50ADG-5y6TPERRPI-131" vertex="1">
          <mxGeometry x="130" y="332.5" width="70" height="30" as="geometry" />
        </mxCell>
        <mxCell id="llRP50ADG-5y6TPERRPI-144" value="Funders" style="text;html=1;align=center;verticalAlign=middle;resizable=0;points=[];autosize=1;strokeColor=none;fillColor=none;" parent="llRP50ADG-5y6TPERRPI-131" vertex="1">
          <mxGeometry x="130" y="402.5" width="70" height="30" as="geometry" />
        </mxCell>
        <mxCell id="llRP50ADG-5y6TPERRPI-145" value="Geo" style="text;html=1;align=center;verticalAlign=middle;resizable=0;points=[];autosize=1;strokeColor=none;fillColor=none;" parent="llRP50ADG-5y6TPERRPI-131" vertex="1">
          <mxGeometry x="140" y="472.5" width="50" height="30" as="geometry" />
        </mxCell>
        <mxCell id="llRP50ADG-5y6TPERRPI-151" style="edgeStyle=orthogonalEdgeStyle;rounded=0;orthogonalLoop=1;jettySize=auto;html=1;entryX=0;entryY=0.5;entryDx=0;entryDy=0;strokeColor=#5A47FF;" parent="1" source="llRP50ADG-5y6TPERRPI-150" target="llRP50ADG-5y6TPERRPI-152" edge="1">
          <mxGeometry relative="1" as="geometry">
            <mxPoint x="-220" y="1590" as="targetPoint" />
          </mxGeometry>
        </mxCell>
        <mxCell id="llRP50ADG-5y6TPERRPI-169" value="Authors" style="edgeLabel;html=1;align=center;verticalAlign=middle;resizable=0;points=[];" parent="llRP50ADG-5y6TPERRPI-151" vertex="1" connectable="0">
          <mxGeometry x="-0.2226" y="1" relative="1" as="geometry">
            <mxPoint x="9" y="11" as="offset" />
          </mxGeometry>
        </mxCell>
        <mxCell id="llRP50ADG-5y6TPERRPI-150" value="Filter:&lt;br&gt;GT last known institution" style="rounded=0;whiteSpace=wrap;html=1;" parent="1" vertex="1">
          <mxGeometry x="-425" y="1640" width="120" height="60" as="geometry" />
        </mxCell>
        <mxCell id="llRP50ADG-5y6TPERRPI-177" style="edgeStyle=orthogonalEdgeStyle;rounded=0;orthogonalLoop=1;jettySize=auto;html=1;entryX=0;entryY=0.5;entryDx=0;entryDy=0;" parent="1" source="llRP50ADG-5y6TPERRPI-152" target="llRP50ADG-5y6TPERRPI-176" edge="1">
          <mxGeometry relative="1" as="geometry" />
        </mxCell>
        <mxCell id="llRP50ADG-5y6TPERRPI-152" value="openalex_author_dump.json" style="ellipse;whiteSpace=wrap;html=1;fillColor=#F8CECC;" parent="1" vertex="1">
          <mxGeometry x="-220" y="1622.5" width="170" height="77.5" as="geometry" />
        </mxCell>
        <mxCell id="llRP50ADG-5y6TPERRPI-155" style="edgeStyle=orthogonalEdgeStyle;rounded=0;orthogonalLoop=1;jettySize=auto;html=1;strokeColor=#B5739D;exitX=1.03;exitY=0.488;exitDx=0;exitDy=0;exitPerimeter=0;" parent="1" source="llRP50ADG-5y6TPERRPI-139" edge="1">
          <mxGeometry relative="1" as="geometry">
            <mxPoint x="-410" y="1446.25" as="targetPoint" />
            <mxPoint x="-560" y="1446.75" as="sourcePoint" />
          </mxGeometry>
        </mxCell>
        <mxCell id="llRP50ADG-5y6TPERRPI-171" value="All OpenAlex Works" style="edgeLabel;html=1;align=center;verticalAlign=middle;resizable=0;points=[];" parent="llRP50ADG-5y6TPERRPI-155" vertex="1" connectable="0">
          <mxGeometry x="-0.1733" relative="1" as="geometry">
            <mxPoint as="offset" />
          </mxGeometry>
        </mxCell>
        <mxCell id="llRP50ADG-5y6TPERRPI-156" style="edgeStyle=orthogonalEdgeStyle;rounded=0;orthogonalLoop=1;jettySize=auto;html=1;entryX=0;entryY=0.5;entryDx=0;entryDy=0;" parent="1" source="llRP50ADG-5y6TPERRPI-157" target="llRP50ADG-5y6TPERRPI-158" edge="1">
          <mxGeometry relative="1" as="geometry">
            <mxPoint x="-220" y="1448.75" as="targetPoint" />
            <Array as="points">
              <mxPoint x="-260" y="1449" />
              <mxPoint x="-260" y="1489" />
            </Array>
          </mxGeometry>
        </mxCell>
        <mxCell id="llRP50ADG-5y6TPERRPI-159" value="Works" style="edgeLabel;html=1;align=center;verticalAlign=middle;resizable=0;points=[];" parent="llRP50ADG-5y6TPERRPI-156" vertex="1" connectable="0">
          <mxGeometry x="-0.3513" relative="1" as="geometry">
            <mxPoint x="25" y="18" as="offset" />
          </mxGeometry>
        </mxCell>
        <mxCell id="llRP50ADG-5y6TPERRPI-160" style="edgeStyle=orthogonalEdgeStyle;rounded=0;orthogonalLoop=1;jettySize=auto;html=1;entryX=0;entryY=0.5;entryDx=0;entryDy=0;" parent="1" source="llRP50ADG-5y6TPERRPI-157" target="llRP50ADG-5y6TPERRPI-161" edge="1">
          <mxGeometry relative="1" as="geometry">
            <mxPoint x="-240" y="1410" as="targetPoint" />
            <Array as="points">
              <mxPoint x="-260" y="1449" />
              <mxPoint x="-260" y="1401" />
            </Array>
          </mxGeometry>
        </mxCell>
        <mxCell id="llRP50ADG-5y6TPERRPI-162" value="authorship.institutions" style="edgeLabel;html=1;align=center;verticalAlign=middle;resizable=0;points=[];" parent="llRP50ADG-5y6TPERRPI-160" vertex="1" connectable="0">
          <mxGeometry x="-0.125" y="-2" relative="1" as="geometry">
            <mxPoint x="-7" y="-55" as="offset" />
          </mxGeometry>
        </mxCell>
        <mxCell id="llRP50ADG-5y6TPERRPI-163" style="edgeStyle=orthogonalEdgeStyle;rounded=0;orthogonalLoop=1;jettySize=auto;html=1;entryX=0;entryY=0.5;entryDx=0;entryDy=0;" parent="1" source="llRP50ADG-5y6TPERRPI-157" target="llRP50ADG-5y6TPERRPI-164" edge="1">
          <mxGeometry relative="1" as="geometry">
            <mxPoint x="-260" y="1590" as="targetPoint" />
            <Array as="points">
              <mxPoint x="-260" y="1449" />
              <mxPoint x="-260" y="1579" />
            </Array>
          </mxGeometry>
        </mxCell>
        <mxCell id="llRP50ADG-5y6TPERRPI-165" value="authorship.author" style="edgeLabel;html=1;align=center;verticalAlign=middle;resizable=0;points=[];" parent="llRP50ADG-5y6TPERRPI-163" vertex="1" connectable="0">
          <mxGeometry x="0.4589" y="-1" relative="1" as="geometry">
            <mxPoint as="offset" />
          </mxGeometry>
        </mxCell>
        <mxCell id="llRP50ADG-5y6TPERRPI-157" value="Filter:&lt;br&gt;authorship.institutions&lt;br&gt;is GT" style="rounded=0;whiteSpace=wrap;html=1;" parent="1" vertex="1">
          <mxGeometry x="-425" y="1418.75" width="120" height="60" as="geometry" />
        </mxCell>
        <mxCell id="llRP50ADG-5y6TPERRPI-179" style="edgeStyle=orthogonalEdgeStyle;rounded=0;orthogonalLoop=1;jettySize=auto;html=1;entryX=0;entryY=0.5;entryDx=0;entryDy=0;" parent="1" source="llRP50ADG-5y6TPERRPI-158" target="llRP50ADG-5y6TPERRPI-176" edge="1">
          <mxGeometry relative="1" as="geometry" />
        </mxCell>
        <mxCell id="llRP50ADG-5y6TPERRPI-158" value="openalex_work_dump.json" style="ellipse;whiteSpace=wrap;html=1;fillColor=#D4E1F5;" parent="1" vertex="1">
          <mxGeometry x="-220" y="1450" width="170" height="77.5" as="geometry" />
        </mxCell>
        <mxCell id="llRP50ADG-5y6TPERRPI-180" style="edgeStyle=orthogonalEdgeStyle;rounded=0;orthogonalLoop=1;jettySize=auto;html=1;entryX=0;entryY=0.5;entryDx=0;entryDy=0;" parent="1" source="llRP50ADG-5y6TPERRPI-161" target="llRP50ADG-5y6TPERRPI-176" edge="1">
          <mxGeometry relative="1" as="geometry" />
        </mxCell>
        <mxCell id="llRP50ADG-5y6TPERRPI-161" value="openalex_institution_dump.json" style="ellipse;whiteSpace=wrap;html=1;fillColor=#FFE599;" parent="1" vertex="1">
          <mxGeometry x="-220" y="1362.5" width="170" height="77.5" as="geometry" />
        </mxCell>
        <mxCell id="llRP50ADG-5y6TPERRPI-178" style="edgeStyle=orthogonalEdgeStyle;rounded=0;orthogonalLoop=1;jettySize=auto;html=1;entryX=0;entryY=0.5;entryDx=0;entryDy=0;" parent="1" source="llRP50ADG-5y6TPERRPI-164" target="llRP50ADG-5y6TPERRPI-176" edge="1">
          <mxGeometry relative="1" as="geometry" />
        </mxCell>
        <mxCell id="llRP50ADG-5y6TPERRPI-164" value="openalex_collab_dump.json" style="ellipse;whiteSpace=wrap;html=1;fillColor=#E1D5E7;" parent="1" vertex="1">
          <mxGeometry x="-220" y="1540" width="170" height="77.5" as="geometry" />
        </mxCell>
        <mxCell id="llRP50ADG-5y6TPERRPI-166" value="" style="endArrow=classic;html=1;rounded=0;entryX=0.732;entryY=0.967;entryDx=0;entryDy=0;fillColor=#3333FF;strokeColor=#5A47FF;entryPerimeter=0;" parent="1" target="llRP50ADG-5y6TPERRPI-132" edge="1">
          <mxGeometry width="50" height="50" relative="1" as="geometry">
            <mxPoint x="-260" y="1660" as="sourcePoint" />
            <mxPoint x="-290" y="1550" as="targetPoint" />
          </mxGeometry>
        </mxCell>
        <mxCell id="llRP50ADG-5y6TPERRPI-167" value="Call Author Works" style="edgeLabel;html=1;align=center;verticalAlign=middle;resizable=0;points=[];" parent="llRP50ADG-5y6TPERRPI-166" vertex="1" connectable="0">
          <mxGeometry x="-0.5011" y="2" relative="1" as="geometry">
            <mxPoint x="8" y="4" as="offset" />
          </mxGeometry>
        </mxCell>
        <mxCell id="llRP50ADG-5y6TPERRPI-173" value="" style="endArrow=none;html=1;rounded=0;exitX=0.938;exitY=0.836;exitDx=0;exitDy=0;exitPerimeter=0;strokeColor=#5A47FF;endFill=0;" parent="1" source="llRP50ADG-5y6TPERRPI-132" edge="1">
          <mxGeometry width="50" height="50" relative="1" as="geometry">
            <mxPoint x="-310" y="1513.75" as="sourcePoint" />
            <mxPoint x="-260" y="1510" as="targetPoint" />
            <Array as="points">
              <mxPoint x="-410" y="1510" />
              <mxPoint x="-290" y="1510" />
            </Array>
          </mxGeometry>
        </mxCell>
        <mxCell id="llRP50ADG-5y6TPERRPI-185" style="edgeStyle=orthogonalEdgeStyle;rounded=0;orthogonalLoop=1;jettySize=auto;html=1;entryX=0;entryY=0.5;entryDx=0;entryDy=0;" parent="1" source="llRP50ADG-5y6TPERRPI-176" target="llRP50ADG-5y6TPERRPI-183" edge="1">
          <mxGeometry relative="1" as="geometry" />
        </mxCell>
        <mxCell id="llRP50ADG-5y6TPERRPI-186" style="edgeStyle=orthogonalEdgeStyle;rounded=0;orthogonalLoop=1;jettySize=auto;html=1;entryX=0;entryY=0.5;entryDx=0;entryDy=0;" parent="1" source="llRP50ADG-5y6TPERRPI-176" target="llRP50ADG-5y6TPERRPI-182" edge="1">
          <mxGeometry relative="1" as="geometry" />
        </mxCell>
        <mxCell id="llRP50ADG-5y6TPERRPI-187" style="edgeStyle=orthogonalEdgeStyle;rounded=0;orthogonalLoop=1;jettySize=auto;html=1;entryX=0;entryY=0.5;entryDx=0;entryDy=0;" parent="1" source="llRP50ADG-5y6TPERRPI-176" target="llRP50ADG-5y6TPERRPI-184" edge="1">
          <mxGeometry relative="1" as="geometry" />
        </mxCell>
        <mxCell id="llRP50ADG-5y6TPERRPI-188" style="edgeStyle=orthogonalEdgeStyle;rounded=0;orthogonalLoop=1;jettySize=auto;html=1;entryX=0;entryY=0.5;entryDx=0;entryDy=0;" parent="1" source="llRP50ADG-5y6TPERRPI-176" target="llRP50ADG-5y6TPERRPI-181" edge="1">
          <mxGeometry relative="1" as="geometry" />
        </mxCell>
        <mxCell id="llRP50ADG-5y6TPERRPI-176" value="Cleaning Script&lt;br&gt;- Merges Duplicates&lt;br&gt;- Adds author IDs to Works" style="rounded=0;whiteSpace=wrap;html=1;" parent="1" vertex="1">
          <mxGeometry x="40" y="1478.75" width="120" height="60" as="geometry" />
        </mxCell>
        <mxCell id="llRP50ADG-5y6TPERRPI-226" style="edgeStyle=orthogonalEdgeStyle;rounded=0;orthogonalLoop=1;jettySize=auto;html=1;entryX=0;entryY=0.5;entryDx=0;entryDy=0;" parent="1" source="llRP50ADG-5y6TPERRPI-181" target="llRP50ADG-5y6TPERRPI-225" edge="1">
          <mxGeometry relative="1" as="geometry" />
        </mxCell>
        <mxCell id="llRP50ADG-5y6TPERRPI-181" value="&lt;font style=&quot;font-size: 10px;&quot;&gt;openalex_author_dump_edit.json&lt;/font&gt;" style="ellipse;whiteSpace=wrap;html=1;fillColor=#F8CECC;" parent="1" vertex="1">
          <mxGeometry x="210" y="1622.5" width="170" height="77.5" as="geometry" />
        </mxCell>
        <mxCell id="llRP50ADG-5y6TPERRPI-205" style="edgeStyle=orthogonalEdgeStyle;rounded=0;orthogonalLoop=1;jettySize=auto;html=1;entryX=0;entryY=0.5;entryDx=0;entryDy=0;" parent="1" source="llRP50ADG-5y6TPERRPI-182" target="llRP50ADG-5y6TPERRPI-196" edge="1">
          <mxGeometry relative="1" as="geometry" />
        </mxCell>
        <mxCell id="llRP50ADG-5y6TPERRPI-182" value="&lt;font style=&quot;font-size: 10px;&quot;&gt;openalex_work_dump_edit.json&lt;/font&gt;" style="ellipse;whiteSpace=wrap;html=1;fillColor=#D4E1F5;" parent="1" vertex="1">
          <mxGeometry x="210" y="1450" width="170" height="77.5" as="geometry" />
        </mxCell>
        <mxCell id="llRP50ADG-5y6TPERRPI-206" style="edgeStyle=orthogonalEdgeStyle;rounded=0;orthogonalLoop=1;jettySize=auto;html=1;entryX=0;entryY=0.5;entryDx=0;entryDy=0;" parent="1" source="llRP50ADG-5y6TPERRPI-183" target="llRP50ADG-5y6TPERRPI-201" edge="1">
          <mxGeometry relative="1" as="geometry" />
        </mxCell>
        <mxCell id="llRP50ADG-5y6TPERRPI-183" value="&lt;font style=&quot;font-size: 10px;&quot;&gt;openalex_institution_dump_edit.json&lt;/font&gt;" style="ellipse;whiteSpace=wrap;html=1;fillColor=#FFE599;" parent="1" vertex="1">
          <mxGeometry x="210" y="1362.5" width="170" height="77.5" as="geometry" />
        </mxCell>
        <mxCell id="llRP50ADG-5y6TPERRPI-204" style="edgeStyle=orthogonalEdgeStyle;rounded=0;orthogonalLoop=1;jettySize=auto;html=1;entryX=0;entryY=0.5;entryDx=0;entryDy=0;" parent="1" source="llRP50ADG-5y6TPERRPI-184" target="llRP50ADG-5y6TPERRPI-197" edge="1">
          <mxGeometry relative="1" as="geometry" />
        </mxCell>
        <mxCell id="llRP50ADG-5y6TPERRPI-184" value="&lt;font style=&quot;font-size: 10px;&quot;&gt;openalex_collab_dump_edit.json&lt;/font&gt;" style="ellipse;whiteSpace=wrap;html=1;fillColor=#E6D0DE;" parent="1" vertex="1">
          <mxGeometry x="210" y="1540" width="170" height="77.5" as="geometry" />
        </mxCell>
        <mxCell id="llRP50ADG-5y6TPERRPI-189" value="Preprocessing" style="swimlane;whiteSpace=wrap;html=1;" parent="1" vertex="1">
          <mxGeometry x="-280" y="1300" width="720" height="610" as="geometry" />
        </mxCell>
        <mxCell id="llRP50ADG-5y6TPERRPI-191" value="" style="endArrow=none;html=1;rounded=0;strokeColor=#B5739D;" parent="llRP50ADG-5y6TPERRPI-189" edge="1">
          <mxGeometry width="50" height="50" relative="1" as="geometry">
            <mxPoint x="-25" y="150" as="sourcePoint" />
            <mxPoint x="20" y="150" as="targetPoint" />
          </mxGeometry>
        </mxCell>
        <mxCell id="llRP50ADG-5y6TPERRPI-193" value="Parallelization on PACE Cluster" style="swimlane;whiteSpace=wrap;html=1;" parent="1" vertex="1">
          <mxGeometry x="470" y="1300" width="350" height="610" as="geometry" />
        </mxCell>
        <mxCell id="lR1tsY36BE7lb5t_xSVD-11" value="" style="edgeStyle=orthogonalEdgeStyle;rounded=0;orthogonalLoop=1;jettySize=auto;html=1;" edge="1" parent="llRP50ADG-5y6TPERRPI-193" source="llRP50ADG-5y6TPERRPI-196" target="lR1tsY36BE7lb5t_xSVD-10">
          <mxGeometry relative="1" as="geometry" />
        </mxCell>
        <mxCell id="llRP50ADG-5y6TPERRPI-196" value="upload_works_parallel" style="rounded=0;whiteSpace=wrap;html=1;" parent="llRP50ADG-5y6TPERRPI-193" vertex="1">
          <mxGeometry x="97.5" y="160" width="145" height="60" as="geometry" />
        </mxCell>
        <mxCell id="llRP50ADG-5y6TPERRPI-197" value="upload_collabs_parallel" style="rounded=0;whiteSpace=wrap;html=1;" parent="llRP50ADG-5y6TPERRPI-193" vertex="1">
          <mxGeometry x="97.5" y="260" width="145" height="60" as="geometry" />
        </mxCell>
        <mxCell id="llRP50ADG-5y6TPERRPI-224" value="upload_institutions" style="rounded=0;whiteSpace=wrap;html=1;" parent="llRP50ADG-5y6TPERRPI-193" vertex="1">
          <mxGeometry x="97.5" y="70" width="145" height="60" as="geometry" />
        </mxCell>
        <mxCell id="llRP50ADG-5y6TPERRPI-225" value="upload_gt_authors" style="rounded=0;whiteSpace=wrap;html=1;" parent="llRP50ADG-5y6TPERRPI-193" vertex="1">
          <mxGeometry x="90" y="350" width="145" height="60" as="geometry" />
        </mxCell>
        <mxCell id="lR1tsY36BE7lb5t_xSVD-2" value="" style="group" vertex="1" connectable="0" parent="llRP50ADG-5y6TPERRPI-193">
          <mxGeometry x="270" y="130" width="80" height="110" as="geometry" />
        </mxCell>
        <mxCell id="lR1tsY36BE7lb5t_xSVD-3" value="" style="whiteSpace=wrap;html=1;aspect=fixed;" vertex="1" parent="lR1tsY36BE7lb5t_xSVD-2">
          <mxGeometry y="10" width="80" height="80" as="geometry" />
        </mxCell>
        <mxCell id="lR1tsY36BE7lb5t_xSVD-4" value="&lt;font style=&quot;font-size: 14px;&quot;&gt;Job 1&lt;/font&gt;" style="text;html=1;strokeColor=none;fillColor=none;align=center;verticalAlign=middle;whiteSpace=wrap;rounded=0;" vertex="1" parent="lR1tsY36BE7lb5t_xSVD-2">
          <mxGeometry x="10" width="60" height="30" as="geometry" />
        </mxCell>
        <mxCell id="lR1tsY36BE7lb5t_xSVD-5" value="" style="whiteSpace=wrap;html=1;aspect=fixed;" vertex="1" parent="lR1tsY36BE7lb5t_xSVD-2">
          <mxGeometry y="20" width="80" height="80" as="geometry" />
        </mxCell>
        <mxCell id="lR1tsY36BE7lb5t_xSVD-6" value="&lt;font style=&quot;font-size: 14px;&quot;&gt;Job 2&lt;/font&gt;" style="text;html=1;strokeColor=none;fillColor=none;align=center;verticalAlign=middle;whiteSpace=wrap;rounded=0;" vertex="1" parent="lR1tsY36BE7lb5t_xSVD-2">
          <mxGeometry x="10" y="10" width="60" height="30" as="geometry" />
        </mxCell>
        <mxCell id="lR1tsY36BE7lb5t_xSVD-7" value="" style="whiteSpace=wrap;html=1;aspect=fixed;" vertex="1" parent="lR1tsY36BE7lb5t_xSVD-2">
          <mxGeometry y="30" width="80" height="80" as="geometry" />
        </mxCell>
        <mxCell id="lR1tsY36BE7lb5t_xSVD-8" value="&lt;font style=&quot;font-size: 14px;&quot;&gt;Job 3&lt;/font&gt;" style="text;html=1;strokeColor=none;fillColor=none;align=center;verticalAlign=middle;whiteSpace=wrap;rounded=0;" vertex="1" parent="lR1tsY36BE7lb5t_xSVD-2">
          <mxGeometry x="10" y="20" width="60" height="30" as="geometry" />
        </mxCell>
        <mxCell id="lR1tsY36BE7lb5t_xSVD-9" value="" style="shape=note;whiteSpace=wrap;html=1;backgroundOutline=1;darkOpacity=0.05;" vertex="1" parent="lR1tsY36BE7lb5t_xSVD-2">
          <mxGeometry y="40" width="80" height="70" as="geometry" />
        </mxCell>
        <mxCell id="lR1tsY36BE7lb5t_xSVD-10" value="&lt;font style=&quot;font-size: 14px;&quot;&gt;etc.&lt;/font&gt;" style="text;html=1;strokeColor=none;fillColor=none;align=center;verticalAlign=middle;whiteSpace=wrap;rounded=0;" vertex="1" parent="lR1tsY36BE7lb5t_xSVD-2">
          <mxGeometry x="10" y="30" width="60" height="30" as="geometry" />
        </mxCell>
        <mxCell id="lR1tsY36BE7lb5t_xSVD-23" value="" style="edgeStyle=orthogonalEdgeStyle;rounded=0;orthogonalLoop=1;jettySize=auto;html=1;endArrow=none;endFill=0;" edge="1" parent="llRP50ADG-5y6TPERRPI-193">
          <mxGeometry relative="1" as="geometry">
            <mxPoint x="242.5" y="298.53" as="sourcePoint" />
            <mxPoint x="258.5" y="300" as="targetPoint" />
            <Array as="points">
              <mxPoint x="260" y="299" />
              <mxPoint x="260" y="300" />
            </Array>
          </mxGeometry>
        </mxCell>
        <mxCell id="llRP50ADG-5y6TPERRPI-198" value="Neo4J" style="swimlane;whiteSpace=wrap;html=1;" parent="1" vertex="1">
          <mxGeometry x="840" y="1300" width="430" height="610" as="geometry" />
        </mxCell>
        <mxCell id="llRP50ADG-5y6TPERRPI-199" value=":Work" style="ellipse;whiteSpace=wrap;html=1;aspect=fixed;fillColor=#D4E1F5;" parent="llRP50ADG-5y6TPERRPI-198" vertex="1">
          <mxGeometry x="200" y="150" width="207.5" height="207.5" as="geometry" />
        </mxCell>
        <mxCell id="llRP50ADG-5y6TPERRPI-200" value=":Author" style="ellipse;whiteSpace=wrap;html=1;aspect=fixed;fillColor=#E1D5E7;" parent="llRP50ADG-5y6TPERRPI-198" vertex="1">
          <mxGeometry x="30" y="360" width="212.5" height="212.5" as="geometry" />
        </mxCell>
        <mxCell id="llRP50ADG-5y6TPERRPI-201" value=":Institution" style="ellipse;whiteSpace=wrap;html=1;aspect=fixed;fillColor=#FFE599;" parent="llRP50ADG-5y6TPERRPI-198" vertex="1">
          <mxGeometry x="60" y="70" width="80" height="80" as="geometry" />
        </mxCell>
        <mxCell id="llRP50ADG-5y6TPERRPI-202" value=":GT" style="ellipse;whiteSpace=wrap;html=1;aspect=fixed;fillColor=#F8CECC;" parent="llRP50ADG-5y6TPERRPI-198" vertex="1">
          <mxGeometry x="80" y="480" width="80" height="80" as="geometry" />
        </mxCell>
        <mxCell id="llRP50ADG-5y6TPERRPI-214" value="AUTHORED" style="shape=flexArrow;endArrow=classic;html=1;rounded=0;" parent="llRP50ADG-5y6TPERRPI-198" edge="1">
          <mxGeometry width="50" height="50" relative="1" as="geometry">
            <mxPoint x="210" y="390" as="sourcePoint" />
            <mxPoint x="260" y="340" as="targetPoint" />
          </mxGeometry>
        </mxCell>
        <mxCell id="llRP50ADG-5y6TPERRPI-215" value="" style="shape=flexArrow;endArrow=classic;html=1;rounded=0;entryX=0.5;entryY=1;entryDx=0;entryDy=0;exitX=0.5;exitY=0;exitDx=0;exitDy=0;" parent="llRP50ADG-5y6TPERRPI-198" edge="1">
          <mxGeometry width="50" height="50" relative="1" as="geometry">
            <mxPoint x="140" y="357.5" as="sourcePoint" />
            <mxPoint x="103.75" y="147.5" as="targetPoint" />
          </mxGeometry>
        </mxCell>
        <mxCell id="llRP50ADG-5y6TPERRPI-216" value="COLLABORATED_WITH&lt;br&gt;WORKED_AT&lt;br&gt;WORKING_AT" style="edgeLabel;html=1;align=center;verticalAlign=middle;resizable=0;points=[];" parent="llRP50ADG-5y6TPERRPI-215" vertex="1" connectable="0">
          <mxGeometry x="0.3626" y="3" relative="1" as="geometry">
            <mxPoint x="18" y="87" as="offset" />
          </mxGeometry>
        </mxCell>
        <mxCell id="llRP50ADG-5y6TPERRPI-219" value="" style="endArrow=classic;html=1;rounded=0;exitX=0;exitY=0;exitDx=80;exitDy=30;entryX=0.086;entryY=0.236;entryDx=0;entryDy=0;entryPerimeter=0;exitPerimeter=0;" parent="1" source="lR1tsY36BE7lb5t_xSVD-19" target="llRP50ADG-5y6TPERRPI-200" edge="1">
          <mxGeometry width="50" height="50" relative="1" as="geometry">
            <mxPoint x="980" y="1640" as="sourcePoint" />
            <mxPoint x="1030" y="1590" as="targetPoint" />
          </mxGeometry>
        </mxCell>
        <mxCell id="llRP50ADG-5y6TPERRPI-220" value="" style="endArrow=classic;html=1;rounded=0;entryX=0.037;entryY=0.31;entryDx=0;entryDy=0;entryPerimeter=0;exitX=0;exitY=0;exitDx=80;exitDy=50;exitPerimeter=0;" parent="1" source="lR1tsY36BE7lb5t_xSVD-19" target="llRP50ADG-5y6TPERRPI-200" edge="1">
          <mxGeometry width="50" height="50" relative="1" as="geometry">
            <mxPoint x="713" y="1605" as="sourcePoint" />
            <mxPoint x="820" y="1540" as="targetPoint" />
          </mxGeometry>
        </mxCell>
        <mxCell id="llRP50ADG-5y6TPERRPI-218" value="" style="endArrow=classic;html=1;rounded=0;entryX=0;entryY=0;entryDx=0;entryDy=0;exitX=1;exitY=0.25;exitDx=0;exitDy=0;" parent="1" source="lR1tsY36BE7lb5t_xSVD-17" target="llRP50ADG-5y6TPERRPI-200" edge="1">
          <mxGeometry width="50" height="50" relative="1" as="geometry">
            <mxPoint x="713" y="1575" as="sourcePoint" />
            <mxPoint x="762.5" y="1520" as="targetPoint" />
          </mxGeometry>
        </mxCell>
        <mxCell id="llRP50ADG-5y6TPERRPI-221" value="" style="endArrow=classic;html=1;rounded=0;entryX=0.077;entryY=0.241;entryDx=0;entryDy=0;entryPerimeter=0;exitX=0;exitY=0;exitDx=80;exitDy=30;exitPerimeter=0;" parent="1" source="lR1tsY36BE7lb5t_xSVD-9" target="llRP50ADG-5y6TPERRPI-199" edge="1">
          <mxGeometry width="50" height="50" relative="1" as="geometry">
            <mxPoint x="713" y="1475" as="sourcePoint" />
            <mxPoint x="762.5" y="1430" as="targetPoint" />
          </mxGeometry>
        </mxCell>
        <mxCell id="llRP50ADG-5y6TPERRPI-222" value="" style="endArrow=classic;html=1;rounded=0;exitX=1.047;exitY=0.576;exitDx=0;exitDy=0;entryX=0.034;entryY=0.357;entryDx=0;entryDy=0;entryPerimeter=0;exitPerimeter=0;" parent="1" source="lR1tsY36BE7lb5t_xSVD-9" target="llRP50ADG-5y6TPERRPI-199" edge="1">
          <mxGeometry width="50" height="50" relative="1" as="geometry">
            <mxPoint x="990" y="1540" as="sourcePoint" />
            <mxPoint x="1040" y="1490" as="targetPoint" />
          </mxGeometry>
        </mxCell>
        <mxCell id="llRP50ADG-5y6TPERRPI-223" value="" style="endArrow=classic;html=1;rounded=0;exitX=0;exitY=0;exitDx=80;exitDy=50;entryX=-0.005;entryY=0.463;entryDx=0;entryDy=0;entryPerimeter=0;exitPerimeter=0;" parent="1" source="lR1tsY36BE7lb5t_xSVD-9" target="llRP50ADG-5y6TPERRPI-199" edge="1">
          <mxGeometry width="50" height="50" relative="1" as="geometry">
            <mxPoint x="990" y="1540" as="sourcePoint" />
            <mxPoint x="1040" y="1490" as="targetPoint" />
          </mxGeometry>
        </mxCell>
        <mxCell id="llRP50ADG-5y6TPERRPI-227" style="edgeStyle=orthogonalEdgeStyle;rounded=0;orthogonalLoop=1;jettySize=auto;html=1;entryX=0;entryY=0.5;entryDx=0;entryDy=0;" parent="1" source="llRP50ADG-5y6TPERRPI-225" target="llRP50ADG-5y6TPERRPI-202" edge="1">
          <mxGeometry relative="1" as="geometry">
            <Array as="points">
              <mxPoint x="780" y="1680" />
              <mxPoint x="780" y="1820" />
            </Array>
          </mxGeometry>
        </mxCell>
        <mxCell id="llRP50ADG-5y6TPERRPI-311" value="&lt;font style=&quot;font-size: 18px;&quot;&gt;OpenAlex Entities&lt;/font&gt;" style="swimlane;whiteSpace=wrap;html=1;startSize=40;" parent="1" vertex="1">
          <mxGeometry x="-750" y="2130" width="130" height="520" as="geometry" />
        </mxCell>
        <mxCell id="llRP50ADG-5y6TPERRPI-312" value="" style="ellipse;whiteSpace=wrap;html=1;" parent="llRP50ADG-5y6TPERRPI-311" vertex="1">
          <mxGeometry x="12.5" y="41.25" width="105" height="55" as="geometry" />
        </mxCell>
        <mxCell id="llRP50ADG-5y6TPERRPI-313" value="" style="ellipse;whiteSpace=wrap;html=1;" parent="llRP50ADG-5y6TPERRPI-311" vertex="1">
          <mxGeometry x="12.5" y="111.25" width="105" height="55" as="geometry" />
        </mxCell>
        <mxCell id="llRP50ADG-5y6TPERRPI-314" value="" style="ellipse;whiteSpace=wrap;html=1;" parent="llRP50ADG-5y6TPERRPI-311" vertex="1">
          <mxGeometry x="12.5" y="181.25" width="105" height="55" as="geometry" />
        </mxCell>
        <mxCell id="llRP50ADG-5y6TPERRPI-315" value="" style="ellipse;whiteSpace=wrap;html=1;" parent="llRP50ADG-5y6TPERRPI-311" vertex="1">
          <mxGeometry x="12.5" y="251.25" width="105" height="55" as="geometry" />
        </mxCell>
        <mxCell id="llRP50ADG-5y6TPERRPI-316" value="" style="ellipse;whiteSpace=wrap;html=1;" parent="llRP50ADG-5y6TPERRPI-311" vertex="1">
          <mxGeometry x="12.5" y="461.25" width="105" height="55" as="geometry" />
        </mxCell>
        <mxCell id="llRP50ADG-5y6TPERRPI-317" value="" style="ellipse;whiteSpace=wrap;html=1;" parent="llRP50ADG-5y6TPERRPI-311" vertex="1">
          <mxGeometry x="12.5" y="391.25" width="105" height="55" as="geometry" />
        </mxCell>
        <mxCell id="llRP50ADG-5y6TPERRPI-318" value="" style="ellipse;whiteSpace=wrap;html=1;" parent="llRP50ADG-5y6TPERRPI-311" vertex="1">
          <mxGeometry x="12.5" y="321.25" width="105" height="55" as="geometry" />
        </mxCell>
        <mxCell id="llRP50ADG-5y6TPERRPI-319" value="&lt;font style=&quot;font-size: 14px;&quot;&gt;Works&lt;br&gt;â€¢Authorships&lt;/font&gt;" style="text;html=1;align=center;verticalAlign=middle;resizable=0;points=[];autosize=1;strokeColor=none;fillColor=none;" parent="llRP50ADG-5y6TPERRPI-311" vertex="1">
          <mxGeometry x="15" y="43.75" width="100" height="50" as="geometry" />
        </mxCell>
        <mxCell id="llRP50ADG-5y6TPERRPI-320" value="&lt;font style=&quot;font-size: 14px;&quot;&gt;Institutions&lt;/font&gt;" style="text;html=1;align=center;verticalAlign=middle;resizable=0;points=[];autosize=1;strokeColor=none;fillColor=none;" parent="llRP50ADG-5y6TPERRPI-311" vertex="1">
          <mxGeometry x="20" y="123.75" width="90" height="30" as="geometry" />
        </mxCell>
        <mxCell id="llRP50ADG-5y6TPERRPI-323" value="&lt;font style=&quot;font-size: 14px;&quot;&gt;Authors&lt;/font&gt;" style="text;html=1;align=center;verticalAlign=middle;resizable=0;points=[];autosize=1;strokeColor=none;fillColor=none;" parent="llRP50ADG-5y6TPERRPI-311" vertex="1">
          <mxGeometry x="30" y="193.75" width="70" height="30" as="geometry" />
        </mxCell>
        <mxCell id="llRP50ADG-5y6TPERRPI-324" value="&lt;font style=&quot;font-size: 14px;&quot;&gt;Sources&lt;/font&gt;" style="text;html=1;align=center;verticalAlign=middle;resizable=0;points=[];autosize=1;strokeColor=none;fillColor=none;" parent="llRP50ADG-5y6TPERRPI-311" vertex="1">
          <mxGeometry x="30" y="263.75" width="70" height="30" as="geometry" />
        </mxCell>
        <mxCell id="llRP50ADG-5y6TPERRPI-325" value="&lt;font style=&quot;font-size: 14px;&quot;&gt;Concepts&lt;/font&gt;" style="text;html=1;align=center;verticalAlign=middle;resizable=0;points=[];autosize=1;strokeColor=none;fillColor=none;" parent="llRP50ADG-5y6TPERRPI-311" vertex="1">
          <mxGeometry x="25" y="333.75" width="80" height="30" as="geometry" />
        </mxCell>
        <mxCell id="llRP50ADG-5y6TPERRPI-326" value="&lt;font style=&quot;font-size: 14px;&quot;&gt;Funders&lt;/font&gt;" style="text;html=1;align=center;verticalAlign=middle;resizable=0;points=[];autosize=1;strokeColor=none;fillColor=none;" parent="llRP50ADG-5y6TPERRPI-311" vertex="1">
          <mxGeometry x="30" y="403.75" width="70" height="30" as="geometry" />
        </mxCell>
        <mxCell id="llRP50ADG-5y6TPERRPI-327" value="&lt;font style=&quot;font-size: 14px;&quot;&gt;Geo&lt;/font&gt;" style="text;html=1;align=center;verticalAlign=middle;resizable=0;points=[];autosize=1;strokeColor=none;fillColor=none;" parent="llRP50ADG-5y6TPERRPI-311" vertex="1">
          <mxGeometry x="40" y="473.75" width="50" height="30" as="geometry" />
        </mxCell>
        <mxCell id="llRP50ADG-5y6TPERRPI-387" style="edgeStyle=orthogonalEdgeStyle;rounded=0;orthogonalLoop=1;jettySize=auto;html=1;entryX=0;entryY=0.5;entryDx=0;entryDy=0;strokeColor=#5A47FF;" parent="1" source="llRP50ADG-5y6TPERRPI-330" target="llRP50ADG-5y6TPERRPI-332" edge="1">
          <mxGeometry relative="1" as="geometry" />
        </mxCell>
        <mxCell id="llRP50ADG-5y6TPERRPI-330" value="&lt;font style=&quot;font-size: 18px;&quot;&gt;Filter:&lt;br&gt;GT last known institution&lt;/font&gt;" style="rounded=0;whiteSpace=wrap;html=1;" parent="1" vertex="1">
          <mxGeometry x="-570" y="2330" width="120" height="60" as="geometry" />
        </mxCell>
        <mxCell id="llRP50ADG-5y6TPERRPI-333" style="edgeStyle=orthogonalEdgeStyle;rounded=0;orthogonalLoop=1;jettySize=auto;html=1;strokeColor=#B5739D;exitX=1.03;exitY=0.488;exitDx=0;exitDy=0;exitPerimeter=0;entryX=0;entryY=0.5;entryDx=0;entryDy=0;" parent="1" source="llRP50ADG-5y6TPERRPI-319" target="llRP50ADG-5y6TPERRPI-341" edge="1">
          <mxGeometry relative="1" as="geometry">
            <mxPoint x="-420" y="2276.25" as="targetPoint" />
            <mxPoint x="-570" y="2276.75" as="sourcePoint" />
          </mxGeometry>
        </mxCell>
        <mxCell id="llRP50ADG-5y6TPERRPI-334" value="&lt;font style=&quot;font-size: 14px;&quot;&gt;All OpenAlex Works&lt;/font&gt;" style="edgeLabel;html=1;align=center;verticalAlign=middle;resizable=0;points=[];" parent="llRP50ADG-5y6TPERRPI-333" vertex="1" connectable="0">
          <mxGeometry x="-0.1733" relative="1" as="geometry">
            <mxPoint x="9" y="-18" as="offset" />
          </mxGeometry>
        </mxCell>
        <mxCell id="llRP50ADG-5y6TPERRPI-390" style="edgeStyle=orthogonalEdgeStyle;rounded=0;orthogonalLoop=1;jettySize=auto;html=1;entryX=0;entryY=0.5;entryDx=0;entryDy=0;" parent="1" source="llRP50ADG-5y6TPERRPI-341" target="llRP50ADG-5y6TPERRPI-343" edge="1">
          <mxGeometry relative="1" as="geometry">
            <Array as="points">
              <mxPoint x="-420" y="2189" />
              <mxPoint x="-420" y="2286" />
            </Array>
          </mxGeometry>
        </mxCell>
        <mxCell id="llRP50ADG-5y6TPERRPI-391" style="edgeStyle=orthogonalEdgeStyle;rounded=0;orthogonalLoop=1;jettySize=auto;html=1;entryX=0;entryY=0.5;entryDx=0;entryDy=0;" parent="1" source="llRP50ADG-5y6TPERRPI-341" target="llRP50ADG-5y6TPERRPI-345" edge="1">
          <mxGeometry relative="1" as="geometry">
            <Array as="points">
              <mxPoint x="-420" y="2189" />
              <mxPoint x="-420" y="2199" />
            </Array>
          </mxGeometry>
        </mxCell>
        <mxCell id="llRP50ADG-5y6TPERRPI-392" style="edgeStyle=orthogonalEdgeStyle;rounded=0;orthogonalLoop=1;jettySize=auto;html=1;entryX=0;entryY=0.5;entryDx=0;entryDy=0;" parent="1" source="llRP50ADG-5y6TPERRPI-341" target="llRP50ADG-5y6TPERRPI-347" edge="1">
          <mxGeometry relative="1" as="geometry">
            <Array as="points">
              <mxPoint x="-420" y="2189" />
              <mxPoint x="-420" y="2376" />
            </Array>
          </mxGeometry>
        </mxCell>
        <mxCell id="llRP50ADG-5y6TPERRPI-348" value="" style="endArrow=classic;html=1;rounded=0;entryX=0.732;entryY=0.967;entryDx=0;entryDy=0;fillColor=#3333FF;strokeColor=#5A47FF;entryPerimeter=0;exitX=0.5;exitY=0;exitDx=0;exitDy=0;" parent="1" source="llRP50ADG-5y6TPERRPI-330" target="llRP50ADG-5y6TPERRPI-312" edge="1">
          <mxGeometry width="50" height="50" relative="1" as="geometry">
            <mxPoint x="-550" y="2310" as="sourcePoint" />
            <mxPoint x="-300" y="2380" as="targetPoint" />
          </mxGeometry>
        </mxCell>
        <mxCell id="llRP50ADG-5y6TPERRPI-349" value="&lt;font style=&quot;font-size: 14px;&quot;&gt;Call Author Works&lt;/font&gt;" style="edgeLabel;html=1;align=center;verticalAlign=middle;resizable=0;points=[];" parent="llRP50ADG-5y6TPERRPI-348" vertex="1" connectable="0">
          <mxGeometry x="-0.5011" y="2" relative="1" as="geometry">
            <mxPoint x="-13" y="-24" as="offset" />
          </mxGeometry>
        </mxCell>
        <mxCell id="llRP50ADG-5y6TPERRPI-350" value="" style="endArrow=none;html=1;rounded=0;exitX=0.938;exitY=0.836;exitDx=0;exitDy=0;exitPerimeter=0;strokeColor=#5A47FF;endFill=0;" parent="1" source="llRP50ADG-5y6TPERRPI-312" edge="1">
          <mxGeometry width="50" height="50" relative="1" as="geometry">
            <mxPoint x="-320" y="2343.75" as="sourcePoint" />
            <mxPoint x="-420" y="2280" as="targetPoint" />
            <Array as="points">
              <mxPoint x="-550" y="2240" />
            </Array>
          </mxGeometry>
        </mxCell>
        <mxCell id="llRP50ADG-5y6TPERRPI-356" style="edgeStyle=orthogonalEdgeStyle;rounded=0;orthogonalLoop=1;jettySize=auto;html=1;entryX=0;entryY=0.5;entryDx=0;entryDy=0;" parent="1" source="llRP50ADG-5y6TPERRPI-357" target="llRP50ADG-5y6TPERRPI-370" edge="1">
          <mxGeometry relative="1" as="geometry" />
        </mxCell>
        <mxCell id="llRP50ADG-5y6TPERRPI-358" style="edgeStyle=orthogonalEdgeStyle;rounded=0;orthogonalLoop=1;jettySize=auto;html=1;entryX=0;entryY=0.5;entryDx=0;entryDy=0;" parent="1" source="llRP50ADG-5y6TPERRPI-359" target="llRP50ADG-5y6TPERRPI-367" edge="1">
          <mxGeometry relative="1" as="geometry" />
        </mxCell>
        <mxCell id="llRP50ADG-5y6TPERRPI-362" style="edgeStyle=orthogonalEdgeStyle;rounded=0;orthogonalLoop=1;jettySize=auto;html=1;entryX=0;entryY=0.5;entryDx=0;entryDy=0;" parent="1" source="llRP50ADG-5y6TPERRPI-363" target="llRP50ADG-5y6TPERRPI-368" edge="1">
          <mxGeometry relative="1" as="geometry" />
        </mxCell>
        <mxCell id="llRP50ADG-5y6TPERRPI-364" value="&lt;font style=&quot;font-size: 18px;&quot;&gt;Preprocessing&lt;/font&gt;" style="swimlane;whiteSpace=wrap;html=1;" parent="1" vertex="1">
          <mxGeometry x="-410" y="2130" width="570" height="520" as="geometry" />
        </mxCell>
        <mxCell id="llRP50ADG-5y6TPERRPI-332" value="&lt;font style=&quot;font-size: 18px;&quot;&gt;openalex_author&lt;br&gt;_dump.json&lt;/font&gt;" style="ellipse;whiteSpace=wrap;html=1;fillColor=#F8CECC;" parent="llRP50ADG-5y6TPERRPI-364" vertex="1">
          <mxGeometry x="10" y="290" width="170" height="77.5" as="geometry" />
        </mxCell>
        <mxCell id="llRP50ADG-5y6TPERRPI-343" value="&lt;font style=&quot;font-size: 18px;&quot;&gt;openalex_work&lt;br&gt;_dump.json&lt;/font&gt;" style="ellipse;whiteSpace=wrap;html=1;fillColor=#D4E1F5;" parent="llRP50ADG-5y6TPERRPI-364" vertex="1">
          <mxGeometry x="10" y="117.5" width="170" height="77.5" as="geometry" />
        </mxCell>
        <mxCell id="llRP50ADG-5y6TPERRPI-345" value="&lt;font style=&quot;font-size: 18px;&quot;&gt;openalex_institution&lt;br&gt;_dump.json&lt;/font&gt;" style="ellipse;whiteSpace=wrap;html=1;fillColor=#FFE599;" parent="llRP50ADG-5y6TPERRPI-364" vertex="1">
          <mxGeometry x="10" y="30" width="170" height="77.5" as="geometry" />
        </mxCell>
        <mxCell id="llRP50ADG-5y6TPERRPI-347" value="&lt;font style=&quot;font-size: 18px;&quot;&gt;openalex_collab&lt;br&gt;_dump.json&lt;/font&gt;" style="ellipse;whiteSpace=wrap;html=1;fillColor=#E1D5E7;" parent="llRP50ADG-5y6TPERRPI-364" vertex="1">
          <mxGeometry x="10" y="207.5" width="170" height="77.5" as="geometry" />
        </mxCell>
        <mxCell id="llRP50ADG-5y6TPERRPI-355" value="&lt;font style=&quot;font-size: 18px;&quot;&gt;Cleaning Script&lt;br&gt;- Merges Duplicates&lt;br&gt;- Adds author IDs to Works&lt;br&gt;- Adds GT flag to current GT authors&lt;br&gt;&lt;/font&gt;" style="rounded=0;whiteSpace=wrap;html=1;" parent="llRP50ADG-5y6TPERRPI-364" vertex="1">
          <mxGeometry x="220" y="70" width="120" height="200" as="geometry" />
        </mxCell>
        <mxCell id="llRP50ADG-5y6TPERRPI-331" style="edgeStyle=orthogonalEdgeStyle;rounded=0;orthogonalLoop=1;jettySize=auto;html=1;entryX=0;entryY=0.5;entryDx=0;entryDy=0;" parent="llRP50ADG-5y6TPERRPI-364" source="llRP50ADG-5y6TPERRPI-332" target="llRP50ADG-5y6TPERRPI-355" edge="1">
          <mxGeometry relative="1" as="geometry" />
        </mxCell>
        <mxCell id="llRP50ADG-5y6TPERRPI-342" style="edgeStyle=orthogonalEdgeStyle;rounded=0;orthogonalLoop=1;jettySize=auto;html=1;entryX=0;entryY=0.5;entryDx=0;entryDy=0;" parent="llRP50ADG-5y6TPERRPI-364" source="llRP50ADG-5y6TPERRPI-343" target="llRP50ADG-5y6TPERRPI-355" edge="1">
          <mxGeometry relative="1" as="geometry" />
        </mxCell>
        <mxCell id="llRP50ADG-5y6TPERRPI-344" style="edgeStyle=orthogonalEdgeStyle;rounded=0;orthogonalLoop=1;jettySize=auto;html=1;entryX=0;entryY=0.5;entryDx=0;entryDy=0;" parent="llRP50ADG-5y6TPERRPI-364" source="llRP50ADG-5y6TPERRPI-345" target="llRP50ADG-5y6TPERRPI-355" edge="1">
          <mxGeometry relative="1" as="geometry" />
        </mxCell>
        <mxCell id="llRP50ADG-5y6TPERRPI-346" style="edgeStyle=orthogonalEdgeStyle;rounded=0;orthogonalLoop=1;jettySize=auto;html=1;entryX=0;entryY=0.5;entryDx=0;entryDy=0;" parent="llRP50ADG-5y6TPERRPI-364" source="llRP50ADG-5y6TPERRPI-347" target="llRP50ADG-5y6TPERRPI-355" edge="1">
          <mxGeometry relative="1" as="geometry" />
        </mxCell>
        <mxCell id="llRP50ADG-5y6TPERRPI-357" value="&lt;font style=&quot;font-size: 18px;&quot;&gt;openalex_author_&lt;br&gt;dump_edit.json&lt;/font&gt;" style="ellipse;whiteSpace=wrap;html=1;fillColor=#F8CECC;" parent="llRP50ADG-5y6TPERRPI-364" vertex="1">
          <mxGeometry x="380" y="290" width="170" height="77.5" as="geometry" />
        </mxCell>
        <mxCell id="llRP50ADG-5y6TPERRPI-359" value="&lt;font style=&quot;font-size: 18px;&quot;&gt;openalex_work_&lt;br&gt;dump_edit.json&lt;/font&gt;" style="ellipse;whiteSpace=wrap;html=1;fillColor=#D4E1F5;" parent="llRP50ADG-5y6TPERRPI-364" vertex="1">
          <mxGeometry x="380" y="117.5" width="170" height="77.5" as="geometry" />
        </mxCell>
        <mxCell id="llRP50ADG-5y6TPERRPI-361" value="&lt;font style=&quot;font-size: 18px;&quot;&gt;openalex_institution&lt;br&gt;_dump_edit.json&lt;/font&gt;" style="ellipse;whiteSpace=wrap;html=1;fillColor=#FFE599;" parent="llRP50ADG-5y6TPERRPI-364" vertex="1">
          <mxGeometry x="380" y="30" width="170" height="77.5" as="geometry" />
        </mxCell>
        <mxCell id="llRP50ADG-5y6TPERRPI-363" value="&lt;font style=&quot;font-size: 18px;&quot;&gt;openalex_collab_&lt;br&gt;dump_edit.json&lt;/font&gt;" style="ellipse;whiteSpace=wrap;html=1;fillColor=#E6D0DE;" parent="llRP50ADG-5y6TPERRPI-364" vertex="1">
          <mxGeometry x="380" y="207.5" width="170" height="77.5" as="geometry" />
        </mxCell>
        <mxCell id="llRP50ADG-5y6TPERRPI-354" style="edgeStyle=orthogonalEdgeStyle;rounded=0;orthogonalLoop=1;jettySize=auto;html=1;entryX=0;entryY=0.5;entryDx=0;entryDy=0;" parent="llRP50ADG-5y6TPERRPI-364" source="llRP50ADG-5y6TPERRPI-355" target="llRP50ADG-5y6TPERRPI-357" edge="1">
          <mxGeometry relative="1" as="geometry" />
        </mxCell>
        <mxCell id="llRP50ADG-5y6TPERRPI-352" style="edgeStyle=orthogonalEdgeStyle;rounded=0;orthogonalLoop=1;jettySize=auto;html=1;entryX=0;entryY=0.5;entryDx=0;entryDy=0;" parent="llRP50ADG-5y6TPERRPI-364" source="llRP50ADG-5y6TPERRPI-355" target="llRP50ADG-5y6TPERRPI-359" edge="1">
          <mxGeometry relative="1" as="geometry" />
        </mxCell>
        <mxCell id="llRP50ADG-5y6TPERRPI-351" style="edgeStyle=orthogonalEdgeStyle;rounded=0;orthogonalLoop=1;jettySize=auto;html=1;entryX=0;entryY=0.5;entryDx=0;entryDy=0;" parent="llRP50ADG-5y6TPERRPI-364" source="llRP50ADG-5y6TPERRPI-355" target="llRP50ADG-5y6TPERRPI-361" edge="1">
          <mxGeometry relative="1" as="geometry" />
        </mxCell>
        <mxCell id="llRP50ADG-5y6TPERRPI-353" style="edgeStyle=orthogonalEdgeStyle;rounded=0;orthogonalLoop=1;jettySize=auto;html=1;entryX=0;entryY=0.5;entryDx=0;entryDy=0;" parent="llRP50ADG-5y6TPERRPI-364" source="llRP50ADG-5y6TPERRPI-355" target="llRP50ADG-5y6TPERRPI-363" edge="1">
          <mxGeometry relative="1" as="geometry" />
        </mxCell>
        <mxCell id="llRP50ADG-5y6TPERRPI-400" value="&lt;span style=&quot;font-size: 18px;&quot;&gt;Works&lt;/span&gt;" style="text;html=1;strokeColor=none;fillColor=none;align=center;verticalAlign=middle;whiteSpace=wrap;rounded=0;" parent="llRP50ADG-5y6TPERRPI-364" vertex="1">
          <mxGeometry x="-30" y="177.5" width="60" height="30" as="geometry" />
        </mxCell>
        <mxCell id="llRP50ADG-5y6TPERRPI-366" value="&lt;font style=&quot;font-size: 18px;&quot;&gt;Parallelization on PACE Cluster&lt;/font&gt;" style="swimlane;whiteSpace=wrap;html=1;startSize=50;" parent="1" vertex="1">
          <mxGeometry x="180" y="2130" width="280" height="520" as="geometry" />
        </mxCell>
        <mxCell id="llRP50ADG-5y6TPERRPI-446" value="" style="edgeStyle=orthogonalEdgeStyle;rounded=0;orthogonalLoop=1;jettySize=auto;html=1;" parent="llRP50ADG-5y6TPERRPI-366" source="llRP50ADG-5y6TPERRPI-367" target="llRP50ADG-5y6TPERRPI-415" edge="1">
          <mxGeometry relative="1" as="geometry" />
        </mxCell>
        <mxCell id="llRP50ADG-5y6TPERRPI-367" value="&lt;font style=&quot;font-size: 18px;&quot;&gt;upload_&lt;br&gt;works_parallel&lt;/font&gt;" style="rounded=0;whiteSpace=wrap;html=1;" parent="llRP50ADG-5y6TPERRPI-366" vertex="1">
          <mxGeometry x="10" y="126.25" width="145" height="60" as="geometry" />
        </mxCell>
        <mxCell id="llRP50ADG-5y6TPERRPI-436" value="" style="edgeStyle=orthogonalEdgeStyle;rounded=0;orthogonalLoop=1;jettySize=auto;html=1;" parent="llRP50ADG-5y6TPERRPI-366" source="llRP50ADG-5y6TPERRPI-368" target="llRP50ADG-5y6TPERRPI-434" edge="1">
          <mxGeometry relative="1" as="geometry" />
        </mxCell>
        <mxCell id="llRP50ADG-5y6TPERRPI-368" value="&lt;font style=&quot;font-size: 18px;&quot;&gt;upload_&lt;br&gt;collabs_parallel&lt;/font&gt;" style="rounded=0;whiteSpace=wrap;html=1;" parent="llRP50ADG-5y6TPERRPI-366" vertex="1">
          <mxGeometry x="10" y="216.25" width="145" height="60" as="geometry" />
        </mxCell>
        <mxCell id="llRP50ADG-5y6TPERRPI-369" value="&lt;font style=&quot;font-size: 18px;&quot;&gt;upload_&lt;br&gt;institutions&lt;/font&gt;" style="rounded=0;whiteSpace=wrap;html=1;" parent="llRP50ADG-5y6TPERRPI-366" vertex="1">
          <mxGeometry x="10" y="60" width="145" height="60" as="geometry" />
        </mxCell>
        <mxCell id="llRP50ADG-5y6TPERRPI-370" value="&lt;font style=&quot;font-size: 18px;&quot;&gt;upload_&lt;br&gt;gt_authors&lt;/font&gt;" style="rounded=0;whiteSpace=wrap;html=1;" parent="llRP50ADG-5y6TPERRPI-366" vertex="1">
          <mxGeometry x="10" y="298.75" width="145" height="60" as="geometry" />
        </mxCell>
        <mxCell id="llRP50ADG-5y6TPERRPI-393" style="edgeStyle=orthogonalEdgeStyle;rounded=0;orthogonalLoop=1;jettySize=auto;html=1;exitX=0.5;exitY=1;exitDx=0;exitDy=0;" parent="llRP50ADG-5y6TPERRPI-366" source="llRP50ADG-5y6TPERRPI-368" target="llRP50ADG-5y6TPERRPI-368" edge="1">
          <mxGeometry relative="1" as="geometry" />
        </mxCell>
        <mxCell id="llRP50ADG-5y6TPERRPI-416" value="" style="group" parent="llRP50ADG-5y6TPERRPI-366" vertex="1" connectable="0">
          <mxGeometry x="180" y="101.25" width="80" height="110" as="geometry" />
        </mxCell>
        <mxCell id="llRP50ADG-5y6TPERRPI-405" value="" style="whiteSpace=wrap;html=1;aspect=fixed;" parent="llRP50ADG-5y6TPERRPI-416" vertex="1">
          <mxGeometry y="10" width="80" height="80" as="geometry" />
        </mxCell>
        <mxCell id="llRP50ADG-5y6TPERRPI-406" value="&lt;font style=&quot;font-size: 14px;&quot;&gt;Job 1&lt;/font&gt;" style="text;html=1;strokeColor=none;fillColor=none;align=center;verticalAlign=middle;whiteSpace=wrap;rounded=0;" parent="llRP50ADG-5y6TPERRPI-416" vertex="1">
          <mxGeometry x="10" width="60" height="30" as="geometry" />
        </mxCell>
        <mxCell id="llRP50ADG-5y6TPERRPI-407" value="" style="whiteSpace=wrap;html=1;aspect=fixed;" parent="llRP50ADG-5y6TPERRPI-416" vertex="1">
          <mxGeometry y="20" width="80" height="80" as="geometry" />
        </mxCell>
        <mxCell id="llRP50ADG-5y6TPERRPI-408" value="&lt;font style=&quot;font-size: 14px;&quot;&gt;Job 2&lt;/font&gt;" style="text;html=1;strokeColor=none;fillColor=none;align=center;verticalAlign=middle;whiteSpace=wrap;rounded=0;" parent="llRP50ADG-5y6TPERRPI-416" vertex="1">
          <mxGeometry x="10" y="10" width="60" height="30" as="geometry" />
        </mxCell>
        <mxCell id="llRP50ADG-5y6TPERRPI-410" value="" style="whiteSpace=wrap;html=1;aspect=fixed;" parent="llRP50ADG-5y6TPERRPI-416" vertex="1">
          <mxGeometry y="30" width="80" height="80" as="geometry" />
        </mxCell>
        <mxCell id="llRP50ADG-5y6TPERRPI-411" value="&lt;font style=&quot;font-size: 14px;&quot;&gt;Job 3&lt;/font&gt;" style="text;html=1;strokeColor=none;fillColor=none;align=center;verticalAlign=middle;whiteSpace=wrap;rounded=0;" parent="llRP50ADG-5y6TPERRPI-416" vertex="1">
          <mxGeometry x="10" y="20" width="60" height="30" as="geometry" />
        </mxCell>
        <mxCell id="llRP50ADG-5y6TPERRPI-413" value="" style="shape=note;whiteSpace=wrap;html=1;backgroundOutline=1;darkOpacity=0.05;" parent="llRP50ADG-5y6TPERRPI-416" vertex="1">
          <mxGeometry y="40" width="80" height="70" as="geometry" />
        </mxCell>
        <mxCell id="llRP50ADG-5y6TPERRPI-415" value="&lt;font style=&quot;font-size: 14px;&quot;&gt;etc.&lt;/font&gt;" style="text;html=1;strokeColor=none;fillColor=none;align=center;verticalAlign=middle;whiteSpace=wrap;rounded=0;" parent="llRP50ADG-5y6TPERRPI-416" vertex="1">
          <mxGeometry x="10" y="30" width="60" height="30" as="geometry" />
        </mxCell>
        <mxCell id="llRP50ADG-5y6TPERRPI-426" value="" style="group" parent="llRP50ADG-5y6TPERRPI-366" vertex="1" connectable="0">
          <mxGeometry x="180" y="211.25" width="80" height="110" as="geometry" />
        </mxCell>
        <mxCell id="llRP50ADG-5y6TPERRPI-427" value="" style="whiteSpace=wrap;html=1;aspect=fixed;" parent="llRP50ADG-5y6TPERRPI-426" vertex="1">
          <mxGeometry y="10" width="80" height="80" as="geometry" />
        </mxCell>
        <mxCell id="llRP50ADG-5y6TPERRPI-428" value="&lt;font style=&quot;font-size: 14px;&quot;&gt;Job 1&lt;/font&gt;" style="text;html=1;strokeColor=none;fillColor=none;align=center;verticalAlign=middle;whiteSpace=wrap;rounded=0;" parent="llRP50ADG-5y6TPERRPI-426" vertex="1">
          <mxGeometry x="10" width="60" height="30" as="geometry" />
        </mxCell>
        <mxCell id="llRP50ADG-5y6TPERRPI-429" value="" style="whiteSpace=wrap;html=1;aspect=fixed;" parent="llRP50ADG-5y6TPERRPI-426" vertex="1">
          <mxGeometry y="20" width="80" height="80" as="geometry" />
        </mxCell>
        <mxCell id="llRP50ADG-5y6TPERRPI-430" value="&lt;font style=&quot;font-size: 14px;&quot;&gt;Job 2&lt;/font&gt;" style="text;html=1;strokeColor=none;fillColor=none;align=center;verticalAlign=middle;whiteSpace=wrap;rounded=0;" parent="llRP50ADG-5y6TPERRPI-426" vertex="1">
          <mxGeometry x="10" y="10" width="60" height="30" as="geometry" />
        </mxCell>
        <mxCell id="llRP50ADG-5y6TPERRPI-431" value="" style="whiteSpace=wrap;html=1;aspect=fixed;" parent="llRP50ADG-5y6TPERRPI-426" vertex="1">
          <mxGeometry y="30" width="80" height="80" as="geometry" />
        </mxCell>
        <mxCell id="llRP50ADG-5y6TPERRPI-432" value="&lt;font style=&quot;font-size: 14px;&quot;&gt;Job 3&lt;/font&gt;" style="text;html=1;strokeColor=none;fillColor=none;align=center;verticalAlign=middle;whiteSpace=wrap;rounded=0;" parent="llRP50ADG-5y6TPERRPI-426" vertex="1">
          <mxGeometry x="10" y="20" width="60" height="30" as="geometry" />
        </mxCell>
        <mxCell id="llRP50ADG-5y6TPERRPI-433" value="" style="shape=note;whiteSpace=wrap;html=1;backgroundOutline=1;darkOpacity=0.05;" parent="llRP50ADG-5y6TPERRPI-426" vertex="1">
          <mxGeometry y="40" width="80" height="70" as="geometry" />
        </mxCell>
        <mxCell id="llRP50ADG-5y6TPERRPI-434" value="&lt;font style=&quot;font-size: 14px;&quot;&gt;etc.&lt;/font&gt;" style="text;html=1;strokeColor=none;fillColor=none;align=center;verticalAlign=middle;whiteSpace=wrap;rounded=0;" parent="llRP50ADG-5y6TPERRPI-426" vertex="1">
          <mxGeometry x="10" y="30" width="60" height="30" as="geometry" />
        </mxCell>
        <mxCell id="llRP50ADG-5y6TPERRPI-371" value="&lt;font style=&quot;font-size: 18px;&quot;&gt;Neo4J&lt;/font&gt;" style="swimlane;whiteSpace=wrap;html=1;" parent="1" vertex="1">
          <mxGeometry x="460" y="2130" width="380" height="520" as="geometry" />
        </mxCell>
        <mxCell id="llRP50ADG-5y6TPERRPI-372" value="&lt;font style=&quot;font-size: 18px;&quot;&gt;:Work&lt;/font&gt;" style="ellipse;whiteSpace=wrap;html=1;aspect=fixed;fillColor=#D4E1F5;" parent="llRP50ADG-5y6TPERRPI-371" vertex="1">
          <mxGeometry x="172.5" y="100" width="207.5" height="207.5" as="geometry" />
        </mxCell>
        <mxCell id="llRP50ADG-5y6TPERRPI-373" value="&lt;font style=&quot;font-size: 18px;&quot;&gt;:Author&lt;/font&gt;" style="ellipse;whiteSpace=wrap;html=1;aspect=fixed;fillColor=#E1D5E7;" parent="llRP50ADG-5y6TPERRPI-371" vertex="1">
          <mxGeometry x="2.5" y="310" width="210" height="210" as="geometry" />
        </mxCell>
        <mxCell id="llRP50ADG-5y6TPERRPI-374" value="&lt;font style=&quot;font-size: 18px;&quot;&gt;:Institution&lt;/font&gt;" style="ellipse;whiteSpace=wrap;html=1;aspect=fixed;fillColor=#FFE599;" parent="llRP50ADG-5y6TPERRPI-371" vertex="1">
          <mxGeometry x="32.5" y="30" width="90" height="90" as="geometry" />
        </mxCell>
        <mxCell id="llRP50ADG-5y6TPERRPI-375" value="&lt;font style=&quot;font-size: 18px;&quot;&gt;:GT&lt;/font&gt;" style="ellipse;whiteSpace=wrap;html=1;aspect=fixed;fillColor=#F8CECC;" parent="llRP50ADG-5y6TPERRPI-371" vertex="1">
          <mxGeometry x="52.5" y="430" width="80" height="80" as="geometry" />
        </mxCell>
        <mxCell id="llRP50ADG-5y6TPERRPI-376" value="&lt;font style=&quot;font-size: 14px;&quot;&gt;AUTHORED&lt;/font&gt;" style="shape=flexArrow;endArrow=classic;html=1;rounded=0;" parent="llRP50ADG-5y6TPERRPI-371" edge="1">
          <mxGeometry width="50" height="50" relative="1" as="geometry">
            <mxPoint x="182.5" y="340" as="sourcePoint" />
            <mxPoint x="232.5" y="290" as="targetPoint" />
          </mxGeometry>
        </mxCell>
        <mxCell id="llRP50ADG-5y6TPERRPI-377" value="" style="shape=flexArrow;endArrow=classic;html=1;rounded=0;exitX=0.5;exitY=0;exitDx=0;exitDy=0;" parent="llRP50ADG-5y6TPERRPI-371" edge="1">
          <mxGeometry width="50" height="50" relative="1" as="geometry">
            <mxPoint x="107.5" y="310" as="sourcePoint" />
            <mxPoint x="77.5" y="122.5" as="targetPoint" />
          </mxGeometry>
        </mxCell>
        <mxCell id="llRP50ADG-5y6TPERRPI-378" value="&lt;font style=&quot;font-size: 14px;&quot;&gt;COLLABORATED_WITH&lt;br&gt;WORKED_AT&lt;br&gt;WORKING_AT&lt;/font&gt;" style="edgeLabel;html=1;align=center;verticalAlign=middle;resizable=0;points=[];" parent="llRP50ADG-5y6TPERRPI-377" vertex="1" connectable="0">
          <mxGeometry x="0.3626" y="3" relative="1" as="geometry">
            <mxPoint x="-7" y="53" as="offset" />
          </mxGeometry>
        </mxCell>
        <mxCell id="llRP50ADG-5y6TPERRPI-321" style="edgeStyle=orthogonalEdgeStyle;rounded=0;orthogonalLoop=1;jettySize=auto;html=1;entryX=0;entryY=0.5;entryDx=0;entryDy=0;strokeColor=#5A47FF;exitX=1;exitY=0.5;exitDx=0;exitDy=0;" parent="1" source="llRP50ADG-5y6TPERRPI-314" target="llRP50ADG-5y6TPERRPI-330" edge="1">
          <mxGeometry relative="1" as="geometry">
            <mxPoint x="-380" y="2338" as="targetPoint" />
            <mxPoint x="-530" y="2338" as="sourcePoint" />
          </mxGeometry>
        </mxCell>
        <mxCell id="llRP50ADG-5y6TPERRPI-322" value="&lt;font style=&quot;font-size: 14px;&quot;&gt;All OpenAlex Authors&lt;/font&gt;" style="edgeLabel;html=1;align=center;verticalAlign=middle;resizable=0;points=[];" parent="llRP50ADG-5y6TPERRPI-321" vertex="1" connectable="0">
          <mxGeometry x="0.1213" y="-2" relative="1" as="geometry">
            <mxPoint x="3" y="-31" as="offset" />
          </mxGeometry>
        </mxCell>
        <mxCell id="llRP50ADG-5y6TPERRPI-386" value="&lt;font style=&quot;font-size: 18px;&quot;&gt;OpenAlex Queries&lt;/font&gt;" style="swimlane;whiteSpace=wrap;html=1;" parent="1" vertex="1">
          <mxGeometry x="-600" y="2130" width="190" height="520" as="geometry" />
        </mxCell>
        <mxCell id="llRP50ADG-5y6TPERRPI-397" value="&lt;font style=&quot;font-size: 18px;&quot;&gt;Authors&lt;/font&gt;" style="text;html=1;strokeColor=none;fillColor=none;align=center;verticalAlign=middle;whiteSpace=wrap;rounded=0;" parent="llRP50ADG-5y6TPERRPI-386" vertex="1">
          <mxGeometry x="140" y="337.5" width="60" height="30" as="geometry" />
        </mxCell>
        <mxCell id="llRP50ADG-5y6TPERRPI-402" value="&lt;font style=&quot;font-size: 18px;&quot;&gt;authorship.institution&lt;/font&gt;" style="text;html=1;strokeColor=none;fillColor=none;align=center;verticalAlign=middle;whiteSpace=wrap;rounded=0;" parent="llRP50ADG-5y6TPERRPI-386" vertex="1">
          <mxGeometry x="150" y="96.25" width="60" height="30" as="geometry" />
        </mxCell>
        <mxCell id="llRP50ADG-5y6TPERRPI-399" value="&lt;font style=&quot;font-size: 18px;&quot;&gt;authorship.author&lt;/font&gt;" style="text;html=1;strokeColor=none;fillColor=none;align=center;verticalAlign=middle;whiteSpace=wrap;rounded=0;" parent="1" vertex="1">
          <mxGeometry x="-460" y="2400" width="60" height="30" as="geometry" />
        </mxCell>
        <mxCell id="llRP50ADG-5y6TPERRPI-403" style="edgeStyle=orthogonalEdgeStyle;rounded=0;orthogonalLoop=1;jettySize=auto;html=1;entryX=0;entryY=0.5;entryDx=0;entryDy=0;" parent="1" source="llRP50ADG-5y6TPERRPI-369" target="llRP50ADG-5y6TPERRPI-374" edge="1">
          <mxGeometry relative="1" as="geometry" />
        </mxCell>
        <mxCell id="llRP50ADG-5y6TPERRPI-404" style="edgeStyle=orthogonalEdgeStyle;rounded=0;orthogonalLoop=1;jettySize=auto;html=1;entryX=0;entryY=0.5;entryDx=0;entryDy=0;" parent="1" source="llRP50ADG-5y6TPERRPI-370" target="llRP50ADG-5y6TPERRPI-375" edge="1">
          <mxGeometry relative="1" as="geometry" />
        </mxCell>
        <mxCell id="llRP50ADG-5y6TPERRPI-439" value="" style="endArrow=classic;html=1;rounded=0;exitX=1;exitY=0.5;exitDx=0;exitDy=0;entryX=0.205;entryY=0.084;entryDx=0;entryDy=0;entryPerimeter=0;" parent="1" source="llRP50ADG-5y6TPERRPI-431" target="llRP50ADG-5y6TPERRPI-373" edge="1">
          <mxGeometry width="50" height="50" relative="1" as="geometry">
            <mxPoint x="520" y="2450" as="sourcePoint" />
            <mxPoint x="570" y="2400" as="targetPoint" />
          </mxGeometry>
        </mxCell>
        <mxCell id="llRP50ADG-5y6TPERRPI-440" value="" style="endArrow=classic;html=1;rounded=0;exitX=1;exitY=0.25;exitDx=0;exitDy=0;entryX=0.271;entryY=0.029;entryDx=0;entryDy=0;entryPerimeter=0;" parent="1" source="llRP50ADG-5y6TPERRPI-431" target="llRP50ADG-5y6TPERRPI-373" edge="1">
          <mxGeometry width="50" height="50" relative="1" as="geometry">
            <mxPoint x="520" y="2450" as="sourcePoint" />
            <mxPoint x="570" y="2400" as="targetPoint" />
          </mxGeometry>
        </mxCell>
        <mxCell id="llRP50ADG-5y6TPERRPI-441" value="" style="endArrow=classic;html=1;rounded=0;exitX=0;exitY=0;exitDx=80;exitDy=50;exitPerimeter=0;entryX=0;entryY=0;entryDx=0;entryDy=0;" parent="1" source="llRP50ADG-5y6TPERRPI-433" target="llRP50ADG-5y6TPERRPI-373" edge="1">
          <mxGeometry width="50" height="50" relative="1" as="geometry">
            <mxPoint x="520" y="2450" as="sourcePoint" />
            <mxPoint x="570" y="2400" as="targetPoint" />
          </mxGeometry>
        </mxCell>
        <mxCell id="llRP50ADG-5y6TPERRPI-442" value="" style="endArrow=classic;html=1;rounded=0;exitX=1;exitY=0.25;exitDx=0;exitDy=0;entryX=0.028;entryY=0.326;entryDx=0;entryDy=0;entryPerimeter=0;" parent="1" source="llRP50ADG-5y6TPERRPI-410" target="llRP50ADG-5y6TPERRPI-372" edge="1">
          <mxGeometry width="50" height="50" relative="1" as="geometry">
            <mxPoint x="520" y="2450" as="sourcePoint" />
            <mxPoint x="570" y="2400" as="targetPoint" />
          </mxGeometry>
        </mxCell>
        <mxCell id="llRP50ADG-5y6TPERRPI-443" value="" style="endArrow=classic;html=1;rounded=0;exitX=0;exitY=0;exitDx=80;exitDy=30;exitPerimeter=0;" parent="1" source="llRP50ADG-5y6TPERRPI-413" edge="1">
          <mxGeometry width="50" height="50" relative="1" as="geometry">
            <mxPoint x="520" y="2450" as="sourcePoint" />
            <mxPoint x="630" y="2320" as="targetPoint" />
          </mxGeometry>
        </mxCell>
        <mxCell id="llRP50ADG-5y6TPERRPI-444" value="" style="endArrow=classic;html=1;rounded=0;entryX=0;entryY=0.5;entryDx=0;entryDy=0;" parent="1" target="llRP50ADG-5y6TPERRPI-372" edge="1">
          <mxGeometry width="50" height="50" relative="1" as="geometry">
            <mxPoint x="440" y="2320" as="sourcePoint" />
            <mxPoint x="570" y="2400" as="targetPoint" />
          </mxGeometry>
        </mxCell>
        <mxCell id="llRP50ADG-5y6TPERRPI-447" style="edgeStyle=orthogonalEdgeStyle;rounded=0;orthogonalLoop=1;jettySize=auto;html=1;entryX=0;entryY=0.5;entryDx=0;entryDy=0;" parent="1" source="llRP50ADG-5y6TPERRPI-361" target="llRP50ADG-5y6TPERRPI-369" edge="1">
          <mxGeometry relative="1" as="geometry" />
        </mxCell>
        <mxCell id="lR1tsY36BE7lb5t_xSVD-1" value="&lt;b&gt;Smaller Version for PP&lt;br&gt;&lt;/b&gt;" style="text;html=1;strokeColor=none;fillColor=none;align=center;verticalAlign=middle;whiteSpace=wrap;rounded=0;" vertex="1" parent="1">
          <mxGeometry x="-770" y="2030" width="250" height="60" as="geometry" />
        </mxCell>
        <mxCell id="lR1tsY36BE7lb5t_xSVD-12" value="" style="group" vertex="1" connectable="0" parent="1">
          <mxGeometry x="730" y="1560" width="80" height="110" as="geometry" />
        </mxCell>
        <mxCell id="lR1tsY36BE7lb5t_xSVD-13" value="" style="whiteSpace=wrap;html=1;aspect=fixed;" vertex="1" parent="lR1tsY36BE7lb5t_xSVD-12">
          <mxGeometry y="10" width="80" height="80" as="geometry" />
        </mxCell>
        <mxCell id="lR1tsY36BE7lb5t_xSVD-14" value="&lt;font style=&quot;font-size: 14px;&quot;&gt;Job 1&lt;/font&gt;" style="text;html=1;strokeColor=none;fillColor=none;align=center;verticalAlign=middle;whiteSpace=wrap;rounded=0;" vertex="1" parent="lR1tsY36BE7lb5t_xSVD-12">
          <mxGeometry x="10" width="60" height="30" as="geometry" />
        </mxCell>
        <mxCell id="lR1tsY36BE7lb5t_xSVD-15" value="" style="whiteSpace=wrap;html=1;aspect=fixed;" vertex="1" parent="lR1tsY36BE7lb5t_xSVD-12">
          <mxGeometry y="20" width="80" height="80" as="geometry" />
        </mxCell>
        <mxCell id="lR1tsY36BE7lb5t_xSVD-16" value="&lt;font style=&quot;font-size: 14px;&quot;&gt;Job 2&lt;/font&gt;" style="text;html=1;strokeColor=none;fillColor=none;align=center;verticalAlign=middle;whiteSpace=wrap;rounded=0;" vertex="1" parent="lR1tsY36BE7lb5t_xSVD-12">
          <mxGeometry x="10" y="10" width="60" height="30" as="geometry" />
        </mxCell>
        <mxCell id="lR1tsY36BE7lb5t_xSVD-17" value="" style="whiteSpace=wrap;html=1;aspect=fixed;" vertex="1" parent="lR1tsY36BE7lb5t_xSVD-12">
          <mxGeometry y="30" width="80" height="80" as="geometry" />
        </mxCell>
        <mxCell id="lR1tsY36BE7lb5t_xSVD-18" value="&lt;font style=&quot;font-size: 14px;&quot;&gt;Job 3&lt;/font&gt;" style="text;html=1;strokeColor=none;fillColor=none;align=center;verticalAlign=middle;whiteSpace=wrap;rounded=0;" vertex="1" parent="lR1tsY36BE7lb5t_xSVD-12">
          <mxGeometry x="10" y="20" width="60" height="30" as="geometry" />
        </mxCell>
        <mxCell id="lR1tsY36BE7lb5t_xSVD-19" value="" style="shape=note;whiteSpace=wrap;html=1;backgroundOutline=1;darkOpacity=0.05;" vertex="1" parent="lR1tsY36BE7lb5t_xSVD-12">
          <mxGeometry y="40" width="80" height="70" as="geometry" />
        </mxCell>
        <mxCell id="lR1tsY36BE7lb5t_xSVD-20" value="&lt;font style=&quot;font-size: 14px;&quot;&gt;etc.&lt;/font&gt;" style="text;html=1;strokeColor=none;fillColor=none;align=center;verticalAlign=middle;whiteSpace=wrap;rounded=0;" vertex="1" parent="lR1tsY36BE7lb5t_xSVD-12">
          <mxGeometry x="10" y="30" width="60" height="30" as="geometry" />
        </mxCell>
      </root>
    </mxGraphModel>
  </diagram>
</mxfile>
